<?xml version="1.0" encoding="UTF-8" standalone="no"?>
<svg width="36px" height="36px" viewBox="0 0 36 36" version="1.1" xmlns="http://www.w3.org/2000/svg" xmlns:xlink="http://www.w3.org/1999/xlink" xmlns:sketch="http://www.bohemiancoding.com/sketch/ns">
    <!-- Generator: Sketch 3.1 (8751) - http://www.bohemiancoding.com/sketch -->
    <title>Vector 1</title>
    <desc>Created with Sketch.</desc>
    <defs></defs>
    <g id="Page-1" stroke="none" stroke-width="1" fill="none" fill-rule="evenodd" sketch:type="MSPage">
        <g id="Fill-608-+-Fill-609-+-Fill-610" sketch:type="MSLayerGroup" transform="translate(10.000000, 0.000000)" fill="#F8F8F7">
            <path d="M13.6,3.34883721 L13.6,34.2669767 C15.4445,34.2669767 16.9354,32.8018605 16.9354,30.9851163 L16.9354,6.63069767 C16.9354,4.81395349 15.4445,3.34883721 13.6,3.34883721" id="Fill-608" sketch:type="MSShapeGroup"></path>
            <path d="M0,6.63069767 L0,30.9851163 C0,32.8018605 1.4926,34.2669767 3.33455,34.2669767 L3.33455,3.34883721 C1.4926,3.34883721 0,4.81395349 0,6.63069767" id="Fill-609" sketch:type="MSShapeGroup"></path>
            <path d="M10.982,11.7460465 C10.3445,13.4790698 9.5251,14.1739535 8.8655,14.7348837 C8.0002,15.4716279 7.47575,15.9153488 8.1226,19.4734884 C8.5306,21.7339535 8.96835,22.0186047 8.98365,22.0353488 L9.13325,21.775814 C9.5217,21.3404651 9.877,21.3990698 10.1082,21.5246512 C10.62925,21.8093023 10.51875,22.1609302 10.1847,23.215814 C9.72995,24.6725581 9.0321,25.107907 8.4116,25.4093023 L8.24415,25.4930233 C8.2994,25.467907 8.31895,25.7609302 8.76095,26.8493023 C9.0933,27.6697674 9.4231,28.347907 9.6917,28.9004651 C10.29605,30.1395349 10.6607,30.8930233 10.23315,31.5544186 C9.87105,32.1237209 9.13325,32.2409302 8.13705,32.2409302 L8.1175,32.2409302 L8.12005,30.867907 L8.13535,30.867907 C8.6411,30.867907 8.891,30.8344186 9.0134,30.8009302 C8.94795,30.5330233 8.68105,29.9804651 8.4405,29.4865116 C8.16085,28.9088372 7.81915,28.2055814 7.47575,27.3683721 C6.77365,25.6437209 6.57985,24.7646512 7.8047,24.1786047 C8.0784,24.0446512 8.37845,23.9023256 8.64875,23.3581395 L8.58415,23.3413953 C7.7197,23.0986047 7.16805,22.0186047 6.7558,19.7162791 C6.0095,15.6055814 6.7252,14.7516279 7.9611,13.7051163 C8.55015,13.2027907 9.16555,12.6753488 9.67385,11.2772093 C10.96755,7.75255814 7.13065,5.5172093 7.089,5.49209302 L7.7877,4.31162791 C9.4775,5.2827907 12.3267,8.07069767 10.982,11.7460465 L10.982,11.7460465 Z M8.12005,0 C5.9823,0 4.25,1.70790698 4.25,3.80930233 L4.25,32.0567442 C4.25,34.1581395 5.9823,35.8660465 8.12005,35.8660465 C10.2561,35.8660465 11.9867,34.1581395 11.9867,32.0567442 L11.9867,3.80930233 C11.9867,1.70790698 10.2561,0 8.12005,0 L8.12005,0 Z" id="Fill-610" sketch:type="MSShapeGroup"></path>
        </g>
    </g>
</svg>