<?xml version="1.0" encoding="UTF-8" standalone="no"?>
<svg width="36px" height="36px" viewBox="0 0 36 36" version="1.1" xmlns="http://www.w3.org/2000/svg" xmlns:xlink="http://www.w3.org/1999/xlink" xmlns:sketch="http://www.bohemiancoding.com/sketch/ns">
    <!-- Generator: Sketch 3.1 (8751) - http://www.bohemiancoding.com/sketch -->
    <title>Vector 1</title>
    <desc>Created with Sketch.</desc>
    <defs></defs>
    <g id="Page-1" stroke="none" stroke-width="1" fill="none" fill-rule="evenodd" sketch:type="MSPage">
        <g id="Group" sketch:type="MSLayerGroup" transform="translate(0.000000, 4.000000)" fill="#F8F8F7">
            <path d="M7.21854545,12.9230769 L2.18181818,14.8184615 C2.23090909,15.1953846 2.30072727,15.3461538 2.38145455,15.7015385 L8.03563636,13.1707692 C7.88509091,13.1276923 7.36254545,12.9661538 7.21854545,12.9230769" id="Fill-779" sketch:type="MSShapeGroup"></path>
            <path d="M35.1523636,9.81076923 C35.1523636,8.52923077 33.7625455,7.36615385 31.4247273,6.46153846 L30.8498182,6.67692308 C33.2792727,7.52769231 34.7694545,8.62615385 34.7694545,9.81076923 C34.7694545,12.4384615 27.3381818,14.6676923 18.5443636,14.6676923 C15.9065455,14.6676923 13.3952727,14.4738462 11.1676364,14.1184615 L2.18181818,17.0476923 C4.07890909,23.0784615 10.6930909,27.5369231 18.5443636,27.5369231 C27.8683636,27.5369231 35.4545455,21.2476923 35.4545455,13.5046154 C35.4545455,12.5892308 35.3498182,10.9415385 35.1425455,9.98307692 L35.1523636,9.81076923" id="Fill-780" sketch:type="MSShapeGroup"></path>
            <path d="M4.72472727,11.8892308 C3.71345455,11.2646154 2.85272727,10.2738462 2.85272727,9.55230769 C2.85272727,6.91384615 10.2850909,4.68461538 19.0810909,4.68461538 C19.4214545,4.68461538 19.7596364,4.68461538 20.0945455,4.69538462 L20.9105455,4.32923077 C20.3105455,4.31846154 19.7007273,4.30769231 19.0810909,4.30769231 C9.76472727,4.30769231 2.46872727,6.61230769 2.46872727,9.55230769 L2.48509091,9.68153846 C2.31818182,10.4461538 2.21563636,12.1369231 2.18181818,13.0630769 L4.72472727,11.8892308" id="Fill-781" sketch:type="MSShapeGroup"></path>
            <path d="M32.1970909,0 L0,14.2046154 L32.9334545,1.75538462 L32.1970909,0" id="Fill-782" sketch:type="MSShapeGroup"></path>
            <path d="M36.2061818,3.90923077 L35.4709091,2.15384615 L3.27272727,16.3584615 L36.2061818,3.90923077" id="Fill-783" sketch:type="MSShapeGroup"></path>
        </g>
    </g>
</svg>