<?xml version="1.0" encoding="UTF-8" standalone="no"?>
<svg width="36px" height="36px" viewBox="0 0 36 36" version="1.1" xmlns="http://www.w3.org/2000/svg" xmlns:xlink="http://www.w3.org/1999/xlink" xmlns:sketch="http://www.bohemiancoding.com/sketch/ns">
    <!-- Generator: Sketch 3.1 (8751) - http://www.bohemiancoding.com/sketch -->
    <title>Vector 1</title>
    <desc>Created with Sketch.</desc>
    <defs></defs>
    <g id="Page-1" stroke="none" stroke-width="1" fill="none" fill-rule="evenodd" sketch:type="MSPage">
        <g id="Group" sketch:type="MSLayerGroup" transform="translate(0.000000, 3.000000)" fill="#F8F8F7">
            <path d="M32.304,6.85647059 C31.1076923,6.85647059 30.1375385,5.89911765 30.1375385,4.71382353 C30.1375385,3.53764706 31.1076923,2.58029412 32.304,2.58029412 C33.4993846,2.58029412 34.4676923,3.53764706 34.4676923,4.71382353 C34.4676923,5.89911765 33.4993846,6.85647059 32.304,6.85647059 L32.304,6.85647059 Z M2.27630769,8.68 L33.66,8.68 L33.66,28.2738235 L2.27630769,28.2738235 L2.27630769,8.68 Z M2.38523077,2.68058824 L9.32307692,2.68058824 L9.32307692,6.53735294 L2.38523077,6.53735294 L2.38523077,2.68058824 Z M11.3833846,2.79 L13.0089231,2.79 L13.0089231,6.96588235 L11.3833846,6.96588235 L11.3833846,2.79 Z M14.6344615,2.79 L16.2609231,2.79 L16.2609231,6.96588235 L14.6344615,6.96588235 L14.6344615,2.79 Z M20.7073846,2.58029412 C21.9036923,2.58029412 22.872,3.53764706 22.872,4.71382353 C22.872,5.89911765 21.9036923,6.85647059 20.7073846,6.85647059 C19.5101538,6.85647059 18.5418462,5.89911765 18.5418462,4.71382353 C18.5418462,3.53764706 19.5101538,2.58029412 20.7073846,2.58029412 L20.7073846,2.58029412 Z M26.3436923,2.58029412 C27.5409231,2.58029412 28.5083077,3.53764706 28.5083077,4.71382353 C28.5083077,5.89911765 27.5409231,6.85647059 26.3436923,6.85647059 C25.1473846,6.85647059 24.1790769,5.89911765 24.1790769,4.71382353 C24.1790769,3.53764706 25.1473846,2.58029412 26.3436923,2.58029412 L26.3436923,2.58029412 Z M0,0 L0,29.5594118 L3.46892308,29.5594118 L3.46892308,30.6261765 L6.82892308,30.6261765 L6.82892308,29.5594118 L29.5966154,29.5594118 L29.5966154,30.6261765 L32.9566154,30.6261765 L32.9566154,29.5594118 L36.4255385,29.5594118 L36.4255385,0 L0,0 L0,0 Z" id="Fill-829" sketch:type="MSShapeGroup"></path>
            <path d="M28.0523077,21.4197419 L27.2584615,21.4197419 L27.2584615,22.8785654 L26.1738462,22.8785654 C26.0741538,21.6020948 25.7843077,20.1523889 25.6144615,18.885036 C25.1963077,15.7485654 26.8033846,16.9794477 26.8033846,16.9794477 C26.8033846,16.9794477 27.0461538,17.1891536 28.1307692,17.927683 C29.8070769,19.350036 29.0630769,16.405036 27.5713846,14.4629772 C26.0824615,12.5118007 25.7086154,12.0832713 25.5221538,14.0162125 C25.3356923,15.940036 22.9633846,16.3594477 22.9633846,16.3594477 C22.9633846,16.3594477 22.548,16.5144477 20.3067692,16.9794477 C16.9532308,17.3806242 17.0464615,21.182683 17.0464615,21.182683 C14.9021538,19.8970948 17.9806154,17.2073889 17.9806154,17.2073889 C13.2036923,17.2073889 10.9089231,20.3256242 9.828,22.8785654 L8.17938462,22.8785654 L8.17938462,22.0488595 L7.38461538,22.0488595 L7.38461538,27.2732713 L28.0523077,27.2732713 L28.0523077,21.4197419" id="Fill-830" sketch:type="MSShapeGroup"></path>
            <path d="M16.4864034,16.0014706 C16.3156342,15.6185294 16.2574803,15.2538235 16.3202496,14.9711765 C16.3839419,14.6794118 16.540865,14.415 16.7660957,14.1688235 C17.0347111,13.8588235 17.3116342,13.3938235 17.2700957,12.8923529 C17.2387111,12.3817647 16.8925573,11.9805882 16.4864034,11.8529412 C16.673788,12.2267647 16.7236342,12.5823529 16.649788,12.865 C16.5704034,13.1476471 16.4070188,13.3938235 16.1605573,13.6582353 C15.8771727,13.9955882 15.6390188,14.4605882 15.7027111,14.9620588 C15.7553265,15.4544118 16.0867111,15.8555882 16.4864034,16.0014706" id="Fill-831" sketch:type="MSShapeGroup"></path>
            <path d="M18.2089623,15.8191176 C18.1148085,15.5 18.10927,15.2447059 18.16927,15.0532353 C18.2329623,14.8708824 18.33727,14.7067647 18.4960392,14.5335294 C18.6963469,14.3055882 18.9160392,13.9317647 18.8680392,13.5305882 C18.8320392,13.1294118 18.5375777,12.8194118 18.2089623,12.7647059 C18.3188085,13.0747059 18.3151161,13.33 18.2486546,13.5032353 C18.1729623,13.6855882 18.0686546,13.8314706 17.8905008,14.0229412 C17.6735777,14.2782353 17.4861931,14.6611765 17.5517315,15.0532353 C17.60527,15.4452941 17.8849623,15.7370588 18.2089623,15.8191176" id="Fill-832" sketch:type="MSShapeGroup"></path>
        </g>
    </g>
</svg>