<?xml version="1.0" encoding="UTF-8" standalone="no"?>
<svg width="36px" height="36px" viewBox="0 0 36 36" version="1.1" xmlns="http://www.w3.org/2000/svg" xmlns:xlink="http://www.w3.org/1999/xlink" xmlns:sketch="http://www.bohemiancoding.com/sketch/ns">
    <!-- Generator: Sketch 3.1 (8751) - http://www.bohemiancoding.com/sketch -->
    <title>Vector 1</title>
    <desc>Created with Sketch.</desc>
    <defs></defs>
    <g id="Page-1" stroke="none" stroke-width="1" fill="none" fill-rule="evenodd" sketch:type="MSPage">
        <path d="M33.4690457,12.4618552 C33.1840574,13.2019411 32.9355211,13.8426125 32.9355211,14.4059615 L32.9355211,29.7047533 C32.9355211,30.9087737 31.9568403,31.8808269 30.7561337,31.8808269 L20.897526,31.8808269 C21.9921904,31.4058464 22.7576823,30.3122865 22.7576823,29.0419897 L22.7576823,12.2851182 C22.7576823,11.0810978 24.2930845,8.88293203 24.0257699,7.02719412 L24.3074444,7.02719412 C28.1779835,7.02719412 31.6817934,7.54635889 33.0249942,8.29749091 C34.6012668,9.18117563 34.2234916,10.5177488 33.4690457,12.4618552 L33.4690457,12.4618552 Z M18.5480292,23.8945262 L19.7487358,23.8945262 L19.7487358,24.7450728 L18.5480292,24.7450728 L18.5480292,23.8945262 Z M14.9967213,18.3383586 C14.5338914,18.3383586 14.1616392,17.9627925 14.1616392,17.4988581 C14.1616392,17.0459696 14.5338914,16.6704036 14.9967213,16.6704036 C15.4540281,16.6704036 15.8262803,17.0459696 15.8262803,17.4988581 C15.8262803,17.9627925 15.4540281,18.3383586 14.9967213,18.3383586 L14.9967213,18.3383586 Z M12.5312409,26.0374617 L14.1616392,26.0374617 L14.1616392,26.468258 L12.5312409,26.468258 L12.5312409,26.0374617 Z M12.2285789,21.0556891 C12.062888,21.0556891 11.9292307,20.9231364 11.9292307,20.7574455 C11.9292307,20.5917546 12.062888,20.4481558 12.2285789,20.4481558 C12.3942698,20.4481558 12.5312409,20.5917546 12.5312409,20.7574455 C12.5312409,20.9231364 12.3942698,21.0556891 12.2285789,21.0556891 L12.2285789,21.0556891 Z M6.42608407,16.6704036 L7.45999519,16.6704036 L7.45999519,17.6976871 L6.42608407,17.6976871 L6.42608407,16.6704036 Z M12.5312409,13.5775071 C12.8615181,13.5775071 13.1288327,13.8426125 13.1288327,14.1850404 C13.1288327,14.5053761 12.8615181,14.7815275 12.5312409,14.7815275 C12.1976499,14.7815275 11.9292307,14.5053761 11.9292307,14.1850404 C11.9292307,13.8426125 12.1976499,13.5775071 12.5312409,13.5775071 L12.5312409,13.5775071 Z M3.24702829,12.7159145 C3.10563873,12.7159145 2.98965511,12.6054539 2.98965511,12.4618552 C2.98965511,12.3182564 3.10563873,12.1967497 3.24702829,12.1967497 C3.39062705,12.1967497 3.50661067,12.3182564 3.50661067,12.4618552 C3.50661067,12.6054539 3.39062705,12.7159145 3.24702829,12.7159145 L3.24702829,12.7159145 Z M33.6568288,7.17079289 C31.7823125,6.12141728 27.5980654,5.74585127 24.3074444,5.74585127 L23.4546886,5.74585127 C23.2194076,5.4696998 22.9079087,5.21564044 22.4992045,4.9836732 C19.1467256,3.09479711 6.76961651,2.91806017 2.64501807,4.9836732 C-1.48178958,7.04928624 1.87289854,10.5840251 1.87289854,12.2851182 L1.87289854,29.0419897 C1.87289854,30.7541289 3.25696974,32.1459323 4.96469046,32.1459323 L14.87411,32.1459323 C15.5070492,32.7755577 16.3752694,33.1732158 17.3395904,33.1732158 L30.7561337,33.1732158 C32.6659973,33.1732158 34.2234916,31.6157215 34.2234916,29.7047533 L34.2234916,14.4059615 C34.2234916,14.0856258 34.452145,13.4891386 34.6741708,12.9257896 C35.3325159,11.2357426 36.3255566,8.68410297 33.6568288,7.17079289 L33.6568288,7.17079289 Z" id="Fill-791" fill="#F8F8F7" sketch:type="MSShapeGroup"></path>
    </g>
</svg>