<?xml version="1.0" encoding="UTF-8" standalone="no"?>
<svg width="36px" height="36px" viewBox="0 0 36 36" version="1.1" xmlns="http://www.w3.org/2000/svg" xmlns:xlink="http://www.w3.org/1999/xlink" xmlns:sketch="http://www.bohemiancoding.com/sketch/ns">
    <!-- Generator: Sketch 3.1 (8751) - http://www.bohemiancoding.com/sketch -->
    <title>Vector 1</title>
    <desc>Created with Sketch.</desc>
    <defs></defs>
    <g id="Page-1" stroke="none" stroke-width="1" fill="none" fill-rule="evenodd" sketch:type="MSPage">
        <g id="Group" sketch:type="MSLayerGroup" transform="translate(0.000000, 7.000000)" fill="#000000">
            <path d="M33.6579161,22 L2.81512544,22 C1.15493939,22 1.79624172,18.6153846 1.79624172,18.6153846 L34.673451,18.6153846 C34.673451,18.6153846 35.013358,22 33.6579161,22" id="Fill-594" sketch:type="MSShapeGroup"></path>
            <path d="M0.837209302,11.8461538 L34.6529302,11.8461538 L34.6529302,14.3676923 L0.837209302,14.3676923 L0.837209302,11.8461538 Z" id="Fill-595" sketch:type="MSShapeGroup"></path>
            <path d="M17.2013023,15.9753846 C17.4616744,15.9669231 17.6500465,16.0853846 17.7404651,16.1869231 C17.9313488,16.1615385 18.2335814,16.0938462 18.7066047,15.9838462 C19.8075349,15.7215385 20.2746977,15.4507692 20.6413953,15.2307692 L16.744186,15.2307692 C16.8630698,15.4 16.9626977,15.5776923 17.0346977,15.7046154 C17.0907907,15.8061538 17.1644651,15.95 17.2013023,15.9753846" id="Fill-596" sketch:type="MSShapeGroup"></path>
            <path d="M14.9416744,15.2307692 L13.3953488,15.2307692 C13.6054884,15.4253846 13.6942326,15.51 14.1145116,15.5269231 C14.4175814,15.5438462 14.6863256,15.4 14.9416744,15.2307692" id="Fill-597" sketch:type="MSShapeGroup"></path>
            <path d="M28.7673488,15.2307692 L27.627907,15.2307692 L28.3529302,15.4761538 L28.7673488,15.2307692" id="Fill-598" sketch:type="MSShapeGroup"></path>
            <path d="M5.41674419,16.61 C6.30334884,16.3223077 7.08362791,15.8823077 7.83460465,15.4507692 C7.96939535,15.3746154 8.10251163,15.2984615 8.23646512,15.2307692 L2.51162791,15.2307692 C2.84651163,15.7807692 3.85116279,17.1176923 5.41674419,16.61" id="Fill-599" sketch:type="MSShapeGroup"></path>
            <path d="M1.40316279,15.4507692 L1.86027907,15.2307692 L0,15.2307692 L0,17.7438462 L4.55609302,17.7438462 C2.9427907,17.6846154 1.82093023,16.3138462 1.40316279,15.4507692" id="Fill-600" sketch:type="MSShapeGroup"></path>
            <path d="M36.0736744,15.2307692 L32.4544186,15.2307692 L33.9371163,16.0346154 L33.4607442,16.94 L30.6569302,15.4169231 L28.6710698,16.6015385 L26.1577674,15.7384615 L22.7645581,15.7384615 C22.1450233,15.7384615 21.9658605,15.8569231 21.5974884,16.0769231 C21.1914419,16.3307692 20.6271628,16.6776923 19.3244651,16.9907692 C17.9296744,17.3207692 17.5470698,17.3630769 17.2875349,17.0246154 L17.2188837,16.9315385 C16.8471628,16.7961538 16.663814,16.4576923 16.5248372,16.1953846 C16.4235349,16.0092308 16.308,15.7892308 16.1154419,15.5692308 C16.1154419,15.5861538 15.9228837,15.73 15.7956279,15.8230769 C15.3853953,16.1446154 14.8077209,16.5761538 14.0215814,16.5507692 C13.2128372,16.5253846 12.9055814,16.2292308 12.6326512,15.9753846 C12.4066047,15.7553846 12.1746977,15.5353846 11.3994419,15.3830769 C10.5044651,15.2053846 9.57097674,15.7384615 8.49432558,16.3476923 C7.73162791,16.7792308 6.87348837,17.27 5.8855814,17.5915385 C5.58502326,17.6930769 5.29869767,17.7353846 5.02325581,17.7438462 L36.0736744,17.7438462 L36.0736744,15.2307692" id="Fill-601" sketch:type="MSShapeGroup"></path>
            <path d="M4.29404651,17.7776923 L4.42883721,17.7692308 L4.18604651,17.7692308 L4.29404651,17.7776923" id="Fill-602" sketch:type="MSShapeGroup"></path>
            <path d="M2.13237209,15.2307692 L1.6744186,15.4592308 L2.25962791,15.4592308 C2.18427907,15.3323077 2.1424186,15.2476923 2.13237209,15.2307692" id="Fill-603" sketch:type="MSShapeGroup"></path>
            <path d="M1.6744186,11.0507692 C4.45981395,4.82307692 9.97869767,0 17.1820465,0 C17.5956279,0 19.9573953,0.0169230769 20.3626047,0.0507692308 C27.1900465,0.516153846 31.936186,4.88230769 34.4821395,10.9661538 L1.6744186,11.0507692" id="Fill-604" sketch:type="MSShapeGroup"></path>
        </g>
    </g>
</svg>