<?xml version="1.0" encoding="UTF-8" standalone="no"?>
<svg width="36px" height="36px" viewBox="0 0 36 36" version="1.1" xmlns="http://www.w3.org/2000/svg" xmlns:xlink="http://www.w3.org/1999/xlink" xmlns:sketch="http://www.bohemiancoding.com/sketch/ns">
    <!-- Generator: Sketch 3.1 (8751) - http://www.bohemiancoding.com/sketch -->
    <title>Vector 1</title>
    <desc>Created with Sketch.</desc>
    <defs></defs>
    <g id="Page-1" stroke="none" stroke-width="1" fill="none" fill-rule="evenodd" sketch:type="MSPage">
        <path d="M33.2870989,18.0998574 L33.1412053,17.9804124 C35.4260184,16.3081817 36.5778099,13.9960669 35.7118334,12.7930847 C34.837325,11.5815707 32.2325698,11.9569694 29.896566,13.6462636 C29.4486471,13.9619398 29.0587443,14.3202749 28.7012624,14.67861 C27.3958987,10.233548 23.30064,7 18.4400798,7 C13.2937047,7 8.99709584,10.6345421 7.97242799,15.4805982 C7.48952874,14.840714 6.86756132,14.2178934 6.10652575,13.6633272 C3.77649419,11.9655012 1.17344539,11.5730389 0.293817949,12.7845529 C-0.589222206,13.9960669 0.58560513,16.3508407 2.91393033,18.0486667 L3.07091525,18.1510481 C0.96356338,20.0451053 0.0438365327,22.4596016 1.02413908,23.5687341 C2.01638613,24.6863985 4.56909738,24.0550461 6.72678681,22.1439254 C7.28647216,21.6490816 7.76083962,21.1201107 8.14391695,20.582608 C9.40576853,25.0873925 13.5317417,28.3977266 18.4400798,28.3977266 C23.1905799,28.3977266 27.2141716,25.3006873 28.6108254,21.0177292 C28.9256484,21.4101915 29.2728922,21.7855902 29.6798586,22.1524571 C31.8273099,24.0635779 34.3791679,24.7119938 35.3748277,23.5943295 C36.3704875,22.4766651 35.4362566,20.0195099 33.2870989,18.0998574" id="Fill-453" fill="#F8F8F7" sketch:type="MSShapeGroup"></path>
    </g>
</svg>