<?xml version="1.0" encoding="UTF-8" standalone="no"?>
<svg width="36px" height="36px" viewBox="0 0 36 36" version="1.1" xmlns="http://www.w3.org/2000/svg" xmlns:xlink="http://www.w3.org/1999/xlink" xmlns:sketch="http://www.bohemiancoding.com/sketch/ns">
    <!-- Generator: Sketch 3.1 (8751) - http://www.bohemiancoding.com/sketch -->
    <title>Vector 1</title>
    <desc>Created with Sketch.</desc>
    <defs></defs>
    <g id="Page-1" stroke="none" stroke-width="1" fill="none" fill-rule="evenodd" sketch:type="MSPage">
        <g id="Fill-366-+-Fill-367" sketch:type="MSLayerGroup" transform="translate(0.000000, 2.000000)" fill="#F8F8F7">
            <path d="M30.419027,8.90514706 C29.5112432,8.90514706 28.7727568,8.17138235 28.7727568,7.26194118 C28.7727568,6.3525 29.5112432,5.61776471 30.419027,5.61776471 C31.3287568,5.61776471 32.0691892,6.3525 32.0691892,7.26194118 C32.0691892,8.17138235 31.3287568,8.90514706 30.419027,8.90514706 L30.419027,8.90514706 Z M21.6145946,6.96494118 C20.8683243,6.96494118 20.2650811,6.36220588 20.2650811,5.61970588 C20.2650811,4.87623529 20.8683243,4.27058824 21.6145946,4.27058824 C22.3608649,4.27058824 22.9650811,4.87623529 22.9650811,5.61970588 C22.9650811,6.36220588 22.3608649,6.96494118 21.6145946,6.96494118 L21.6145946,6.96494118 Z M16.3663784,8.90126471 C15.5412973,8.90126471 14.8718919,8.23835294 14.8718919,7.41238235 C14.8718919,6.58835294 15.5412973,5.92252941 16.3663784,5.92252941 C17.1914595,5.92252941 17.8608649,6.58835294 17.8608649,7.41238235 C17.8608649,8.23835294 17.1914595,8.90126471 16.3663784,8.90126471 L16.3663784,8.90126471 Z M19.7523243,0 L0,17.8064118 L35.4094054,8.26844118 C35.4094054,8.26844118 33.624,1.84508824 19.7523243,0 L19.7523243,0 Z" id="Fill-366" sketch:type="MSShapeGroup"></path>
            <path d="M28.0527568,20.1309706 C26.9104865,20.1309706 25.9861622,19.2118235 25.9861622,18.0723529 C25.9861622,16.9338529 26.9104865,16.0108235 28.0527568,16.0108235 C29.1930811,16.0108235 30.1183784,16.9338529 30.1183784,18.0723529 C30.1183784,19.2118235 29.1930811,20.1309706 28.0527568,20.1309706 L28.0527568,20.1309706 Z M18.4534054,27.0202059 C17.3237838,27.0202059 16.4101622,26.1078529 16.4101622,24.9839118 C16.4101622,23.8570588 17.3237838,22.9427647 18.4534054,22.9427647 C19.5810811,22.9427647 20.4976216,23.8570588 20.4976216,24.9839118 C20.4976216,26.1078529 19.5810811,27.0202059 18.4534054,27.0202059 L18.4534054,27.0202059 Z M11.7749189,22.9427647 C10.9965405,22.9427647 10.3660541,22.3138235 10.3660541,21.5373529 C10.3660541,20.7647647 10.9965405,20.1309706 11.7749189,20.1309706 C12.5542703,20.1309706 13.1837838,20.7647647 13.1837838,21.5373529 C13.1837838,22.3138235 12.5542703,22.9427647 11.7749189,22.9427647 L11.7749189,22.9427647 Z M10.3154595,27.0202059 C9.75113514,27.0202059 9.29383784,26.5669412 9.29383784,26.0030294 C9.29383784,25.4410588 9.75113514,24.9839118 10.3154595,24.9839118 C10.8788108,24.9839118 11.3361081,25.4410588 11.3361081,26.0030294 C11.3361081,26.5669412 10.8788108,27.0202059 10.3154595,27.0202059 L10.3154595,27.0202059 Z M35.6526486,10.6764706 L0,19.3117941 L0,32.5166471 L18.7063784,32.5166471 C19.3582703,30.4211471 21.2954595,28.8866471 23.6130811,28.8866471 C25.9297297,28.8866471 27.8669189,30.4211471 28.5188108,32.5166471 L35.7684324,32.5166471 L35.6526486,10.6764706 L35.6526486,10.6764706 Z" id="Fill-367" sketch:type="MSShapeGroup"></path>
        </g>
    </g>
</svg>