<?xml version="1.0" encoding="UTF-8" standalone="no"?>
<svg width="36px" height="36px" viewBox="0 0 36 36" version="1.1" xmlns="http://www.w3.org/2000/svg" xmlns:xlink="http://www.w3.org/1999/xlink" xmlns:sketch="http://www.bohemiancoding.com/sketch/ns">
    <!-- Generator: Sketch 3.1 (8751) - http://www.bohemiancoding.com/sketch -->
    <title>Vector 1</title>
    <desc>Created with Sketch.</desc>
    <defs></defs>
    <g id="Page-1" stroke="none" stroke-width="1" fill="none" fill-rule="evenodd" sketch:type="MSPage">
        <path d="M29.0622939,19.3958993 C28.2241993,19.3958993 27.5481733,18.7198733 27.5481733,17.8806686 C27.5481733,17.0459042 28.2241993,16.3687682 29.0622939,16.3687682 C29.8970583,16.3687682 30.5753045,17.0459042 30.5753045,17.8806686 C30.5753045,18.7198733 29.8970583,19.3958993 29.0622939,19.3958993 L29.0622939,19.3958993 Z M24.2868197,23.1223677 C23.9027392,23.1223677 23.5885925,22.808221 23.5885925,22.4208103 C23.5885925,22.03784 23.9027392,21.7259134 24.2868197,21.7259134 C24.6753404,21.7259134 24.987267,22.03784 24.987267,22.4208103 C24.987267,22.808221 24.6753404,23.1223677 24.2868197,23.1223677 L24.2868197,23.1223677 Z M23.7639818,29.2942963 C23.0879559,29.2942963 22.5418068,28.7425969 22.5418068,28.0710111 C22.5418068,27.3949851 23.0879559,26.846616 23.7639818,26.846616 C24.4388978,26.846616 24.987267,27.3949851 24.987267,28.0710111 C24.987267,28.7425969 24.4388978,29.2942963 23.7639818,29.2942963 L23.7639818,29.2942963 Z M21.4950211,6.70348363 C21.4950211,6.12514284 21.9645761,5.65558784 22.5418068,5.65558784 C23.1190375,5.65558784 23.5885925,6.12514284 23.5885925,6.70348363 C23.5885925,7.28182441 23.1190375,7.75359953 22.5418068,7.75359953 C21.9645761,7.75359953 21.4950211,7.28182441 21.4950211,6.70348363 L21.4950211,6.70348363 Z M18.9330047,17.2989977 C18.4179372,17.2989977 18.0016651,16.8838356 18.0016651,16.3687682 C18.0016651,15.8548108 18.4179372,15.4363185 18.9330047,15.4363185 C19.446962,15.4363185 19.8643442,15.8548108 19.8643442,16.3687682 C19.8643442,16.8838356 19.446962,17.2989977 18.9330047,17.2989977 L18.9330047,17.2989977 Z M28.3640667,10.5465082 C28.8136407,10.5465082 29.1777401,10.9128277 29.1777401,11.3624016 C29.1777401,11.8108655 28.8136407,12.1782951 28.3640667,12.1782951 C27.9133827,12.1782951 27.5481733,11.8108655 27.5481733,11.3624016 C27.5481733,10.9128277 27.9133827,10.5465082 28.3640667,10.5465082 L28.3640667,10.5465082 Z M14.7414215,9.38316628 C13.7135068,9.38316628 12.8765223,8.5495119 12.8765223,7.52048712 C12.8765223,6.49035228 13.7135068,5.65558784 14.7414215,5.65558784 C15.7693362,5.65558784 16.6052107,6.49035228 16.6052107,7.52048712 C16.6052107,8.5495119 15.7693362,9.38316628 14.7414215,9.38316628 L14.7414215,9.38316628 Z M14.7414215,26.846616 C13.7135068,26.846616 12.8765223,26.0129616 12.8765223,24.9828267 C12.8765223,23.954912 13.7135068,23.1223677 14.7414215,23.1223677 C15.7693362,23.1223677 16.6052107,23.954912 16.6052107,24.9828267 C16.6052107,26.0129616 15.7693362,26.846616 14.7414215,26.846616 L14.7414215,26.846616 Z M11.0138431,18.2314473 C10.5009958,18.2314473 10.0847236,17.812955 10.0847236,17.2989977 C10.0847236,16.7861504 10.5009958,16.3687682 11.0138431,16.3687682 C11.5300206,16.3687682 11.9474028,16.7861504 11.9474028,17.2989977 C11.9474028,17.812955 11.5300206,18.2314473 11.0138431,18.2314473 L11.0138431,18.2314473 Z M5.89203043,17.2989977 C5.37696301,17.2989977 4.96069085,16.8838356 4.96069085,16.3687682 C4.96069085,15.8548108 5.37696301,15.4363185 5.89203043,15.4363185 C6.40820791,15.4363185 6.82337001,15.8548108 6.82337001,16.3687682 C6.82337001,16.8838356 6.40820791,17.2989977 5.89203043,17.2989977 L5.89203043,17.2989977 Z M18.0016651,1 C8.61278527,1 1,8.60945509 1,17.9972249 C1,27.3872147 8.61278527,34.9955598 18.0016651,34.9955598 C27.3905449,34.9955598 35,27.3872147 35,17.9972249 C35,8.60945509 27.3905449,1 18.0016651,1 L18.0016651,1 Z" id="Fill-382" fill="#F8F8F7" sketch:type="MSShapeGroup"></path>
    </g>
</svg>