<?xml version="1.0" encoding="UTF-8" standalone="no"?>
<svg width="36px" height="36px" viewBox="0 0 36 36" version="1.1" xmlns="http://www.w3.org/2000/svg" xmlns:xlink="http://www.w3.org/1999/xlink" xmlns:sketch="http://www.bohemiancoding.com/sketch/ns">
    <!-- Generator: Sketch 3.1 (8751) - http://www.bohemiancoding.com/sketch -->
    <title>Vector 1</title>
    <desc>Created with Sketch.</desc>
    <defs></defs>
    <g id="Page-1" stroke="none" stroke-width="1" fill="none" fill-rule="evenodd" sketch:type="MSPage">
        <g id="Fill-769-+-Fill-770" sketch:type="MSLayerGroup" fill="#F8F8F7">
            <path d="M19.532,8.85333333 L19.604,8.76 L19.6906667,8.85333333 L19.532,8.85333333 L19.532,8.85333333 Z M32.1386667,10.0133333 C31.6826667,9.32 30.9013333,8.85333333 30.0106667,8.85333333 L26.1293333,8.85333333 C25.96,4.33333333 18.584,2.8 19.0986667,0 C18.1226667,2.93333333 14.064,3.46666667 12.6253333,4.4 C10.0826667,6.06666667 9.856,7.8 10.044,8.85333333 L5.636,8.85333333 C4.744,8.85333333 3.964,9.32 3.51066667,10.0133333 C2.34133333,10.1733333 1.43466667,11.12 1.33333333,12.3066667 L34.3146667,12.3066667 C34.2186667,11.12 33.308,10.1733333 32.1386667,10.0133333 L32.1386667,10.0133333 Z" id="Fill-769" sketch:type="MSShapeGroup"></path>
            <path d="M34.3546667,23.6133333 L3.08133333,30.68 L2.18666667,24.6266667 L35.316,17.1333333 L34.3546667,23.6133333 L34.3546667,23.6133333 Z M0,13.3333333 L3.40933333,36.3466667 L32.9853333,36.3466667 L34.8066667,24.0266667 L35.928,16.48 L36.2853333,13.3333333 L0,13.3333333 L0,13.3333333 Z" id="Fill-770" sketch:type="MSShapeGroup"></path>
        </g>
    </g>
</svg>