<?xml version="1.0" encoding="UTF-8" standalone="no"?>
<svg width="37px" height="26px" viewBox="0 0 37 26" version="1.1" xmlns="http://www.w3.org/2000/svg" xmlns:xlink="http://www.w3.org/1999/xlink" xmlns:sketch="http://www.bohemiancoding.com/sketch/ns">
    <!-- Generator: Sketch 3.1 (8751) - http://www.bohemiancoding.com/sketch -->
    <title>Group</title>
    <desc>Created with Sketch.</desc>
    <defs></defs>
    <g id="Page-1" stroke="none" stroke-width="1" fill="none" fill-rule="evenodd" sketch:type="MSPage">
        <g id="Group" sketch:type="MSLayerGroup" fill="#F8F8F7">
            <path d="M0.474146341,21.1655172 L0.652390244,21.5862069 L0.697170732,21.6931034 L0.707707317,21.7198276 C0.69102439,21.8396552 0.711219512,21.7698276 0.709463415,21.8060345 L0.73404878,21.8663793 L0.834146341,22.1025862 C0.973756098,22.4189655 1.116,22.725 1.28195122,23.0284483 C1.45404878,23.3232759 1.64634146,23.637069 1.8342439,23.9224138 C2.01512195,24.2077586 1.38995122,23.3655172 2.47170732,24.7146552 C3.55258537,26.0637931 3.46214634,24.7336207 3.46214634,24.7336207 C3.53502439,23.1362069 3.8537561,21.587931 4.40253659,20.1301724 L0,18.9655172 C0.0939512195,19.712069 0.24497561,20.4482759 0.474146341,21.1655172" id="Fill-419" sketch:type="MSShapeGroup"></path>
            <path d="M24.1683446,1.92095807 C21.9741007,-0.646283305 15.8207348,-0.734214339 12.7379055,2.22699256 C11.9116616,4.81406152 12.2576128,8.06664773 13.5913689,11.5890615 C15.2789787,10.9752684 17.1817104,10.9502684 18.9834665,10.9735443 C20.4612226,10.9519926 23.8996616,11.6235443 23.8996616,11.6235443 C23.8996616,11.6235443 25.9990763,5.65802704 24.1683446,1.92095807" id="Fill-420" sketch:type="MSShapeGroup"></path>
            <path d="M35.9078049,16.3793103 L31.6097561,18.3215517 C31.6097561,18.3215517 33.0234146,23.5163793 33.1437073,23.9793103 C33.264878,24.4422414 33.948,23.9793103 33.948,23.9793103 C35.4345366,22.2586207 36.0561951,20.0310345 36.0263415,17.7310345 C36.0193171,17.2801724 35.9710244,16.8293103 35.9078049,16.3793103" id="Fill-421" sketch:type="MSShapeGroup"></path>
            <path d="M0.0983414634,18.1301724 L0,18.1034483" id="Fill-422" sketch:type="MSShapeGroup"></path>
            <path d="M4.74007988,19.2543103 C8.99247013,17.0293103 12.194714,11.8931034 12.194714,11.8931034 C10.466714,8.6637931 11.0111043,3.4887931 11.1006652,3.44827586 C9.91090915,3.67327586 -1.54235914,6.06637931 0.175104273,17.3956897 C0.215494517,17.6715517 0.253250615,17.9206897 0.291884761,18.1672414 L4.70495793,19.3353448" id="Fill-423" sketch:type="MSShapeGroup"></path>
            <path d="M31.5658537,17.5344828 C27.3125854,15.3077586 24.5853659,11.1913793 24.5853659,11.1913793 C26.5820488,5.78103448 25.2921951,1.76810345 25.2035122,1.72413793 C26.3923902,1.95431034 37.8456585,4.34655172 36.1290732,15.675 C36.0869268,15.9491379 36.0500488,15.7 36.0122927,15.9491379 L31.6000976,17.612931" id="Fill-424" sketch:type="MSShapeGroup"></path>
        </g>
    </g>
</svg>