<?xml version="1.0" encoding="UTF-8" standalone="no"?>
<svg width="36px" height="36px" viewBox="0 0 36 36" version="1.1" xmlns="http://www.w3.org/2000/svg" xmlns:xlink="http://www.w3.org/1999/xlink" xmlns:sketch="http://www.bohemiancoding.com/sketch/ns">
    <!-- Generator: Sketch 3.1 (8751) - http://www.bohemiancoding.com/sketch -->
    <title>Vector 1</title>
    <desc>Created with Sketch.</desc>
    <defs></defs>
    <g id="Page-1" stroke="none" stroke-width="1" fill="none" fill-rule="evenodd" sketch:type="MSPage">
        <g id="Group" sketch:type="MSLayerGroup" transform="translate(5.000000, 0.000000)" fill="#F8F8F7">
            <path d="M12.3076216,19.836 L14.2684054,17.8992 L12.1806486,15.84 L10.2162162,17.7768 L12.3076216,19.836" id="Fill-485" sketch:type="MSShapeGroup"></path>
            <path d="M11.0729189,20.7792 L8.98443243,18.72 L7.2972973,20.3832 L9.38578378,22.4424 L11.0729189,20.7792" id="Fill-486" sketch:type="MSShapeGroup"></path>
            <path d="M10.2162162,23.2632 L11.9048108,24.9264 L13.5926757,23.2632 L11.9048108,21.6 L10.2162162,23.2632" id="Fill-487" sketch:type="MSShapeGroup"></path>
            <path d="M14.8237297,22.32 L16.7881622,20.3832 L15.0995676,18.72 L13.1351351,20.6568 L14.8237297,22.32" id="Fill-488" sketch:type="MSShapeGroup"></path>
            <path d="M17.7419189,19.5624 L19.8311351,17.5032 L18.144,15.84 L16.0540541,17.8992 L17.7419189,19.5624" id="Fill-489" sketch:type="MSShapeGroup"></path>
            <path d="M16.7837838,20.4552 L17.8097838,21.4704 L18.8372432,20.4552 L17.8097838,19.44 L16.7837838,20.4552" id="Fill-490" sketch:type="MSShapeGroup"></path>
            <path d="M13.8648649,23.3352 L14.8923243,24.3504 L15.9197838,23.3352 L14.8923243,22.32 L13.8648649,23.3352" id="Fill-491" sketch:type="MSShapeGroup"></path>
            <path d="M10.9459459,26.2152 L11.9763243,27.2304 L13.0030541,26.2152 L11.9763243,25.2 L10.9459459,26.2152" id="Fill-492" sketch:type="MSShapeGroup"></path>
            <path d="M15.624973,18.5904 L16.6517027,17.5752 L15.624973,16.56 L14.5945946,17.5752 L15.624973,18.5904" id="Fill-493" sketch:type="MSShapeGroup"></path>
            <path d="M11.9763243,21.4704 L13.0030541,20.4552 L11.9763243,19.44 L10.9459459,20.4552 L11.9763243,21.4704" id="Fill-494" sketch:type="MSShapeGroup"></path>
            <path d="M9.78348649,22.32 L8.75675676,23.3352 L9.78348649,24.3504 L10.8124054,23.3352 L9.78348649,22.32" id="Fill-495" sketch:type="MSShapeGroup"></path>
            <path d="M9.05302703,18.5904 L10.0804865,17.5752 L9.05302703,16.56 L8.02702703,17.5752 L9.05302703,18.5904" id="Fill-496" sketch:type="MSShapeGroup"></path>
            <path d="M5.87724324,13.4352 L5.08256757,14.22 L6.1092973,15.2352 L7.13967568,14.22 L6.34427027,13.4352 L7.93362162,13.4352 L7.13967568,14.22 L9.09972973,16.1568 L11.0627027,14.22 L10.2687568,13.4352 L11.8566486,13.4352 L11.0627027,14.22 L12.0916216,15.2352 L13.1205405,14.22 L12.3244054,13.4352 L13.9144865,13.4352 L13.1205405,14.22 L15.2097568,16.2792 L17.2975135,14.22 L16.5021081,13.4352 L18.0921892,13.4352 L17.2975135,14.22 L18.3264324,15.2352 L19.3538919,14.22 L18.5592162,13.4352 L20.1485676,13.4352 L19.3538919,14.22 L21.0417568,15.8832 L22.6836486,14.2632 L21.8415405,13.4352 L23.1543243,13.4352 L22.7821622,14.1696 L22.6836486,14.2632 L22.7186757,14.2992 L21.6248108,16.4592 L21.0417568,15.8832 L20.0135676,16.8984 L20.9395946,17.8128 L20.7345405,18.216 L18.9518108,19.9728 L19.5472703,20.5632 L18.864973,21.9168 L17.9243514,20.988 L15.9613784,22.9248 L17.5551081,24.4944 L16.8720811,25.848 L14.9339189,23.94 L13.2453243,25.6032 L15.2097568,27.54 L16.8239189,25.9488 L15.7468378,28.0728 L15.2097568,27.54 L14.1793784,28.5552 L15.0645405,29.4264 L14.7733784,29.9952 L13.1205405,31.6296 L13.6722162,32.1768 L13.0388108,33.4296 L12.4491892,32.292 L13.1205405,31.6296 L12.0916216,30.6144 L11.7552162,30.9528 L11.0539459,29.592 L12.0916216,30.6144 L14.1793784,28.5552 L12.2185946,26.6184 L10.4292973,28.3824 L9.73386486,27.0432 L11.1882162,25.6032 L9.50108108,23.94 L8.59402703,24.8328 L7.90151351,23.4936 L8.47435135,22.9248 L6.70548649,21.1824 L6.48802703,20.7576 L7.41259459,19.8504 L6.38367568,18.8352 L5.79551351,19.4184 L4.56737838,17.0424 L6.38367568,18.8352 L8.07372973,17.172 L6.1092973,15.2352 L4.46886486,16.8552 L3.77343243,15.5088 L5.08256757,14.22 L4.28789189,13.4352 L5.87724324,13.4352 L5.87724324,13.4352 Z M13.049027,36.0792 L25.1063514,12.24 L0.72972973,12.24 L13.049027,36.0792 L13.049027,36.0792 Z" id="Fill-497" sketch:type="MSShapeGroup"></path>
            <path d="M24.9589459,6.5088 C25.0005405,6.2352 25.0275405,5.9544 25.0275405,5.6664 C25.0275405,2.5416 22.4574324,0 19.2867568,0 C17.9425946,0 16.713,0.4608 15.7373514,1.224 C14.760973,0.4608 13.5291892,0 12.1886757,0 C9.25589189,0 6.84194595,2.1744 6.49313514,4.9752 C6.24721622,4.9464 5.99910811,4.9248 5.74589189,4.9248 C2.5722973,4.9248 0,7.4592 0,10.5912 C0,10.944 0.0379459459,11.2896 0.102162162,11.628 L26.622,11.628 C26.6854865,11.2896 26.721973,10.944 26.721973,10.5912 C26.721973,8.9856 26.0447838,7.5384 24.9589459,6.5088" id="Fill-498" sketch:type="MSShapeGroup"></path>
        </g>
    </g>
</svg>