<?xml version="1.0" encoding="UTF-8" standalone="no"?>
<svg width="36px" height="36px" viewBox="0 0 36 36" version="1.1" xmlns="http://www.w3.org/2000/svg" xmlns:xlink="http://www.w3.org/1999/xlink" xmlns:sketch="http://www.bohemiancoding.com/sketch/ns">
    <!-- Generator: Sketch 3.1 (8751) - http://www.bohemiancoding.com/sketch -->
    <title>Vector 1</title>
    <desc>Created with Sketch.</desc>
    <defs></defs>
    <g id="Page-1" stroke="none" stroke-width="1" fill="none" fill-rule="evenodd" sketch:type="MSPage">
        <g id="Fill-372-+-Fill-373" sketch:type="MSLayerGroup" transform="translate(0.000000, 1.000000)" fill="#F8F8F7">
            <path d="M17.8112195,24.9095 C13.8459512,24.9095 10.6305366,21.706125 10.6305366,17.754625 C10.6305366,13.799625 13.8459512,10.59275 17.8112195,10.59275 C21.779122,10.59275 24.9962927,13.799625 24.9962927,17.754625 C24.9962927,21.706125 21.779122,24.9095 17.8112195,24.9095 L17.8112195,24.9095 Z M35.6268293,15.820875 C35.6268293,12.2885 33.9945366,9.253125 31.6457561,7.84875 C31.0416585,3.752 28.1774634,0.644 24.7276098,0.644 C23.4,0.644 22.1601951,1.11475 21.1003902,1.9145 C19.8649756,0.728875 18.2063415,0 16.3764878,0 C13.3340488,0 10.7578537,2.006375 9.84117073,4.787125 C8.79453659,3.773 7.4124878,3.15 5.88995122,3.15 C2.63502439,3.15 0,5.970125 0,9.449125 C0,11.4205 0.847317073,13.17925 2.17404878,14.335125 C0.830634146,15.652875 0,17.46675 0,19.4705 C0,21.84 1.16341463,23.937375 2.96078049,25.272625 C1.93609756,26.2885 1.32146341,27.549375 1.32146341,28.917875 C1.32146341,32.279625 4.97414634,35.004375 9.48117073,35.004375 C11.0432195,35.004375 12.5007805,34.671 13.7397073,34.1005 C14.5404878,34.447875 15.407122,34.64475 16.3185366,34.64475 C17.7945366,34.64475 19.1590244,34.14075 20.2846829,33.285875 C21.4840976,34.132 23.0347317,34.64475 24.7276098,34.64475 C28.5242927,34.64475 31.6027317,32.081 31.6027317,28.917875 C31.6027317,27.237 30.7273171,25.7285 29.339122,24.681125 L29.3716098,24.583125 C32.8785366,24.16925 35.6268293,20.405 35.6268293,15.820875 L35.6268293,15.820875 Z" id="Fill-372" sketch:type="MSShapeGroup"></path>
            <path d="M17.5817271,12.2680405 C17.0408491,12.2006655 16.4306052,12.3179155 16.0117759,12.6889155 C15.6825076,12.9794155 15.742215,13.4116655 16.2198735,13.4737905 C18.7073857,13.7949155 21.7050442,15.2036655 21.8244589,18.0360405 C21.8560686,18.7474155 24.0828003,18.2994155 24.0450442,17.4454155 C23.9080686,14.2682905 20.3414345,12.6276655 17.5817271,12.2680405" id="Fill-373" sketch:type="MSShapeGroup"></path>
        </g>
    </g>
</svg>