<?xml version="1.0" encoding="UTF-8" standalone="no"?>
<svg width="36px" height="36px" viewBox="0 0 36 36" version="1.1" xmlns="http://www.w3.org/2000/svg" xmlns:xlink="http://www.w3.org/1999/xlink" xmlns:sketch="http://www.bohemiancoding.com/sketch/ns">
    <!-- Generator: Sketch 3.1 (8751) - http://www.bohemiancoding.com/sketch -->
    <title>Vector 1</title>
    <desc>Created with Sketch.</desc>
    <defs></defs>
    <g id="Page-1" stroke="none" stroke-width="1" fill="none" fill-rule="evenodd" sketch:type="MSPage">
        <g id="Group" sketch:type="MSLayerGroup" transform="translate(0.000000, 3.000000)" fill="#F8F8F7">
            <path d="M6.41239024,21.5228571 C5.56243902,21.5228571 4.87053659,20.8231429 4.87053659,19.964 C4.87053659,19.1048571 5.56243902,18.414 6.41239024,18.414 C7.26409756,18.414 7.95512195,19.1048571 7.95512195,19.964 C7.95512195,20.8231429 7.26409756,21.5228571 6.41239024,21.5228571 L6.41239024,21.5228571 Z M10.1599024,12.4 C4.02409756,15.1368571 0,20.956 0,20.956 C0.0324878049,21.0002857 3.04946341,24.4811429 5.54663415,23.56 L5.63092683,24.18 C5.31658537,24.2951429 4.99521951,24.3482857 4.66946341,24.3482857 C2.94409756,24.3482857 1.14234146,22.9045714 0.211609756,22.0365714 C1.52956098,23.6928571 5.09180488,27.7848571 9.7235122,30.008 C13.1795122,24.0648571 10.6999024,14.322 10.1599024,12.4 L10.1599024,12.4 Z" id="Fill-784" sketch:type="MSShapeGroup"></path>
            <path d="M30.221561,18.5557143 C27.5206829,15.5531429 22.139122,10.6285714 15.9436098,10.6285714 C14.2120976,10.6285714 12.5446829,11.0094286 10.980878,11.6382857 C11.5103415,13.4451429 14.1760976,23.4625714 10.5365854,29.8131429 C12.2277073,30.5394286 14.0470244,31 15.9436098,31 C22.5096585,31 28.1563902,25.4731429 30.6772683,22.5591429 L35.6558049,25.4288571 L35.6558049,16.1997143 L30.221561,18.5557143" id="Fill-785" sketch:type="MSShapeGroup"></path>
            <path d="M18.2821219,3.57828571 C18.5911951,3.95028571 18.9187073,4.29571429 19.255,4.65 C19.579878,4.99542857 19.8740244,5.32314286 20.1304146,5.67742857 C20.3780244,6.03171429 20.5457317,6.42142857 20.5808536,6.78457143 C20.6273902,7.15657143 20.5167561,7.52857143 20.2875853,7.89171429 C20.0592927,8.26371429 19.7370488,8.59142857 19.380561,8.90142857 L19.4104146,8.96342857 C19.885439,8.84828571 20.3262195,8.60028571 20.695,8.22828571 C21.0637805,7.874 21.3333414,7.316 21.2947073,6.73142857 C21.2560732,6.14685714 20.9566585,5.65971429 20.6273902,5.28771429 C20.299878,4.898 19.8950975,4.59685714 19.4815366,4.35771429 C19.0855366,4.12742857 18.7176341,3.82628571 18.4568536,3.44542857 C18.1951951,3.06457143 18.1012439,2.59514286 18.1293414,2.20542857 C18.1416341,2.01057143 18.1820244,1.82457143 18.2408536,1.62971429 C18.3058293,1.44371429 18.4006585,1.26657143 18.5183171,1.08057143 C18.7536341,0.717428571 19.0697317,0.389714286 19.4104146,0.062 L19.380561,0 C18.9029024,0.115142857 18.4691463,0.380857143 18.1126585,0.752857143 C17.7631951,1.12485714 17.4971463,1.674 17.5744146,2.232 C17.6437805,2.79885714 17.9870975,3.20628571 18.2821219,3.57828571" id="Fill-786" sketch:type="MSShapeGroup"></path>
            <path d="M23.5533553,3.57828571 C23.8606724,3.95028571 24.1873066,4.29571429 24.5235992,4.65 C24.8475992,4.99542857 25.1461358,5.32314286 25.40077,5.67742857 C25.6466236,6.03171429 25.8116968,6.42142857 25.850331,6.78457143 C25.8959895,7.15657143 25.7853553,7.52857143 25.5553066,7.89171429 C25.3278919,8.26371429 25.005648,8.59142857 24.6526724,8.90142857 L24.6798919,8.96342857 C25.1566724,8.84828571 25.5965749,8.60028571 25.9635992,8.22828571 C26.3341358,7.874 26.6054529,7.316 26.5641846,6.73142857 C26.5264285,6.14685714 26.2226236,5.65971429 25.8977456,5.28771429 C25.5684773,4.898 25.1619407,4.59685714 24.7501358,4.35771429 C24.3558919,4.12742857 23.9827212,3.82628571 23.727209,3.44542857 C23.4637944,3.06457143 23.3680871,2.59514286 23.3979407,2.20542857 C23.4119895,2.01057143 23.4523797,1.82457143 23.5076968,1.62971429 C23.5726724,1.44371429 23.6701358,1.26657143 23.7869163,1.08057143 C24.0213553,0.717428571 24.3400871,0.389714286 24.68077,0.062 L24.6509163,0 C24.1697456,0.115142857 23.7359895,0.380857143 23.3786236,0.752857143 C23.0335505,1.12485714 22.7666236,1.674 22.8421358,2.232 C22.9132578,2.79885714 23.2556968,3.20628571 23.5533553,3.57828571" id="Fill-787" sketch:type="MSShapeGroup"></path>
            <path d="M12.140441,3.57828571 C12.44688,3.95028571 12.7726361,4.29571429 13.1098068,4.65 C13.4338068,4.99542857 13.7297093,5.32314286 13.9843434,5.67742857 C14.2363434,6.03171429 14.3961483,6.42142857 14.4339044,6.78457143 C14.480441,7.15657143 14.3706849,7.52857143 14.1397581,7.89171429 C13.9149776,8.26371429 13.5900995,8.59142857 13.2362459,8.90142857 L13.2669776,8.96342857 C13.7402459,8.84828571 14.1792703,8.60028571 14.5480507,8.22828571 C14.9185873,7.874 15.1890263,7.316 15.1503922,6.73142857 C15.1117581,6.14685714 14.8105873,5.65971429 14.480441,5.28771429 C14.1520507,4.898 13.7463922,4.59685714 13.3354654,4.35771429 C12.9394654,4.12742857 12.5698068,3.82628571 12.3107824,3.44542857 C12.0491239,3.06457143 11.9551727,2.59514286 11.9832703,2.20542857 C11.9938068,2.01057143 12.0350751,1.82457143 12.0947824,1.62971429 C12.1597581,1.44371429 12.2563434,1.26657143 12.3731239,1.08057143 C12.6058068,0.717428571 12.9236605,0.389714286 13.2669776,0.062 L13.2362459,0 C12.7559532,0.115142857 12.3221971,0.380857143 11.9674654,0.752857143 C11.6197581,1.12485714 11.3519532,1.674 11.4274654,2.232 C11.4959532,2.79885714 11.8383922,3.20628571 12.140441,3.57828571" id="Fill-788" sketch:type="MSShapeGroup"></path>
        </g>
    </g>
</svg>