<?xml version="1.0" encoding="UTF-8" standalone="no"?>
<svg width="36px" height="36px" viewBox="0 0 36 36" version="1.1" xmlns="http://www.w3.org/2000/svg" xmlns:xlink="http://www.w3.org/1999/xlink" xmlns:sketch="http://www.bohemiancoding.com/sketch/ns">
    <!-- Generator: Sketch 3.1 (8751) - http://www.bohemiancoding.com/sketch -->
    <title>Vector 1</title>
    <desc>Created with Sketch.</desc>
    <defs></defs>
    <g id="Page-1" stroke="none" stroke-width="1" fill="none" fill-rule="evenodd" sketch:type="MSPage">
        <path d="M5.04337821,13.2537694 L5.04691221,13.2576961 L4.7594799,13.5404164 C4.80345862,13.5757564 4.89612805,13.6621432 4.93578743,13.7053365 C5.43133329,14.2000971 5.43133329,15.0011379 4.93578743,15.4958985 C4.44259757,15.990659 3.63684471,15.990659 3.14286951,15.4958985 C2.77219179,15.1267914 2.66734967,14.5534974 2.88527991,14.0744436 L2.41918408,13.6228765 C1.94091557,13.8349167 1.37547496,13.7288966 1.00676057,13.3597895 C0.513178043,12.8689557 0.513178043,12.0639881 1.0075459,11.5692276 C1.5026991,11.0744671 2.30688129,11.0744671 2.79692981,11.5653009 L2.93632663,11.7773412 L3.24731896,11.4553541 L3.24967496,11.4592808 L6.95959358,7.75250353 C6.99022162,7.8506703 7.02595432,7.94883707 7.06639903,8.04307717 C7.20304718,8.35328417 7.38681537,8.63600447 7.62673496,8.87553139 C7.90081659,9.14647168 8.22555227,9.35065857 8.58602065,9.48809205 C8.64138671,9.5077254 8.69871611,9.52343208 8.75565283,9.54306544 L5.04337821,13.2537694 L5.04337821,13.2537694 Z M13.7802209,2.72243816 C12.2700232,1.21459656 9.82095864,1.21459656 8.31036836,2.72243816 C7.24741856,3.78656597 6.59716186,5.65566129 6.83158411,7.19491627 L2.95438931,11.0705404 C2.26839991,10.5561465 1.2890882,10.6032666 0.666318206,11.2276072 C-0.0188858582,11.9069213 -0.0188858582,13.0181691 0.666318206,13.7053365 C1.10649801,14.1451237 1.75400603,14.3100439 2.347326,14.1569037 C2.19379317,14.749831 2.35910601,15.3977317 2.80203448,15.8375188 C3.48370454,16.5207595 4.59455973,16.5207595 5.27780046,15.8375188 C5.90253379,15.2131782 5.94926117,14.2354371 5.43133329,13.5482697 L9.30852809,9.67264558 C10.8473904,9.90824583 12.7164857,9.25641847 13.7802209,8.19229066 C15.2896331,6.68444906 15.2896331,4.23420644 13.7802209,2.72243816 L13.7802209,2.72243816 Z" id="Fill-652" fill="#F8F8F7" sketch:type="MSShapeGroup"></path>
        <g id="Group" sketch:type="MSLayerGroup" transform="translate(7.000000, 16.000000)" fill="#F8F8F7">
            <path d="M20.8776034,11.4849144 C20.8776034,15.0702051 16.765333,17.9763877 11.6932651,17.9763877 C6.62169912,17.9763877 2.50993068,15.0702051 2.50993068,11.4849144" id="Fill-580" sketch:type="MSShapeGroup"></path>
            <path d="M2.50993068,8.98819387 L20.8479862,8.98819387 L20.8479862,11.4050193 L2.50993068,11.4050193 L2.50993068,8.98819387 Z" id="Fill-581" sketch:type="MSShapeGroup"></path>
            <path d="M9.53773659,17.9763877 L14.2604222,17.9763877 L14.2604222,18.8752071 L9.53773659,18.8752071 L9.53773659,17.9763877 Z" id="Fill-582" sketch:type="MSShapeGroup"></path>
            <path d="M9.25712634,10.925649 L3.54904198,0 L3.01191682,0.279632698 L8.71799323,11.2052817 L9.25712634,10.925649" id="Fill-583" sketch:type="MSShapeGroup"></path>
            <path d="M8.79680505,10.0867509 L0.447771634,0.998688208 L0,1.40315693 L8.34802945,10.4962131 L8.79680505,10.0867509" id="Fill-584" sketch:type="MSShapeGroup"></path>
            <path d="M12.8557437,7.07553035 C12.7814497,7.07553035 12.7036419,7.08052379 12.6223201,7.09550411 C12.1273618,7.18039261 11.8969502,7.44504498 11.9335952,7.87947435 C11.940623,7.96935629 11.9612044,8.06423167 11.9888136,8.15910705 C12.3407059,7.94938253 12.7598643,7.91942188 13.2392611,8.06922511 C13.4094344,7.86449403 13.5906514,7.66475639 13.785422,7.47500563 C13.531417,7.2403139 13.2317313,7.07553035 12.8557437,7.07553035 L12.8557437,7.07553035 Z M14.4349921,7.50995972 C14.5619946,7.66475639 14.6754434,7.8245465 14.7808605,7.96935629 C14.9650894,8.22901523 15.1944971,8.55358889 15.3230056,8.55358889 C15.3365592,8.55358889 15.45302,8.54360201 15.668874,8.18407426 C16.0719689,7.5199466 16.6151179,6.62112721 16.5629113,6.41639613 C16.5588954,6.44136333 16.3043885,6.40640925 15.1121714,7.0455697 C14.8702141,7.18039261 14.6453243,7.33518928 14.4349921,7.50995972 L14.4349921,7.50995972 Z M9.5822921,6.54123216 L9.54665109,6.5462256 C9.46783926,6.61114033 9.46884323,6.935714 9.60688942,7.14543852 L9.64604434,7.20535981 C9.92765856,7.61981542 10.237886,8.10917264 10.4677956,8.59353642 C10.5461055,8.47868728 10.634455,8.3838119 10.7112589,8.30391684 C10.9707858,8.02428414 11.0917644,7.89445468 10.5124724,7.25030078 C9.97032738,6.65108786 9.6836933,6.54123216 9.5822921,6.54123216 L9.5822921,6.54123216 Z M12.1760545,8.58354954 C12.26591,8.74333965 12.3758449,8.89813633 12.5063613,9.052933 C12.6383837,8.8581888 12.7784378,8.65845116 12.9300376,8.45871351 C12.6368777,8.39879222 12.3969284,8.43873975 12.192118,8.57356266 L12.1760545,8.58354954 L12.1760545,8.58354954 Z M12.8361662,9.37750667 C13.2713882,9.75201474 13.8265849,10.0216606 14.4274623,10.0216606 C15.054945,10.0216606 15.2125686,9.89183109 15.2180905,9.86187045 C15.2507196,9.66712625 14.5670144,9.05792644 13.3918649,8.60851675 C13.1920744,8.86318224 13.0078455,9.12783461 12.8361662,9.37750667 L12.8361662,9.37750667 Z M11.2398503,11.0952504 L11.1886477,11.0902569 C10.8794243,11.0652897 10.6786298,10.7756702 10.5451015,10.5010309 C10.3061561,10.7307292 9.91159501,10.8156177 9.37898772,10.7706767 L9.42215852,10.3162736 C9.73991575,10.3412408 10.1460225,10.3312539 10.2860767,10.0965622 C10.3061561,10.0666015 10.3232236,10.0216606 10.3372792,9.96673271 C10.2504356,9.68210657 10.2253363,9.4424214 10.239392,9.24268376 C10.1003418,8.83821503 9.81220175,8.26896276 9.26654282,7.46002531 L9.22537996,7.40010401 C8.98292065,7.04057626 8.94928758,6.43137645 9.26403289,6.18669784 C9.62295298,5.91205858 10.1560623,6.16672408 10.853823,6.95069432 C11.648969,7.83453338 11.4230753,8.2140349 11.0465857,8.61351019 C10.9000057,8.7733003 10.7499119,8.93309041 10.7062391,9.19274935 C10.7865568,9.45240828 10.8257118,9.70707377 10.8066363,9.93177862 C10.8297276,10.0016868 10.8598468,10.0815819 10.8944839,10.1614769 C11.0807207,10.6008997 11.2082252,10.6358538 11.2308146,10.6408472 C11.4371309,10.6408472 11.8623131,10.0116737 12.2086836,9.49235581 L12.2438226,9.4424214 C12.0972426,9.28263129 11.9667262,9.11784773 11.8557873,8.9430773 C11.5289943,9.48236893 11.4883335,10.2513588 11.4883335,10.2613457 L11.0300201,10.241372 C11.03253,10.1914376 11.0857406,9.14281494 11.6188499,8.48867416 C11.54054,8.2989234 11.4928513,8.1041792 11.4762858,7.91942188 C11.4195614,7.24530734 11.8171344,6.77093044 12.5465202,6.64609442 C13.2392611,6.53124527 13.7372314,6.79589765 14.1267726,7.17040573 C14.365216,6.97066808 14.619723,6.79589765 14.8938074,6.64609442 C16.103594,5.99195364 16.6512609,5.85213729 16.9082778,6.12178311 C17.227541,6.45634366 16.8811705,7.06554346 16.067953,8.41377255 C15.9158512,8.6634446 15.6789137,8.99800515 15.344089,9.00799203 L15.3230056,9.00799203 C14.9585636,9.00799203 14.7020487,8.64846427 14.4063789,8.23400867 C14.3049777,8.09419232 14.2030745,7.94938253 14.0926375,7.80956618 C13.9550933,7.94938253 13.8200591,8.08919888 13.6925546,8.23900211 C14.6377945,8.62849051 15.7742911,9.31758537 15.668874,9.93677206 C15.5785165,10.4810571 14.7125904,10.4810571 14.4274623,10.4810571 C13.7553029,10.4810571 13.1032229,10.1864441 12.5831652,9.75700819 C12.04855,10.5559588 11.686618,11.0952504 11.2398503,11.0952504 L11.2398503,11.0952504 Z" id="Fill-585" sketch:type="MSShapeGroup"></path>
        </g>
        <g id="Fill-393-+-Fill-394-+-Fill-395" sketch:type="MSLayerGroup" transform="translate(27.500000, 8.500000) rotate(-330.000000) translate(-27.500000, -8.500000) translate(19.000000, 3.000000)" fill="#F8F8F7">
            <path d="M0,7.74074074 L16.8279762,7.74074074 C16.8279762,9.21922222 13.0608571,11.1287407 8.41378571,11.1287407 C3.76711905,11.1287407 0,9.21922222 0,7.74074074" id="Fill-393" sketch:type="MSShapeGroup"></path>
            <path d="M16.8279762,3.38677778 L0,3.38677778 C0,1.91074074 3.76711905,0 8.41378571,0 C13.0608571,0 16.8279762,1.91074074 16.8279762,3.38677778" id="Fill-394" sketch:type="MSShapeGroup"></path>
            <path d="M14.3710714,6.76011111 C14.2249524,6.79555556 14.0849048,6.81185185 13.9509286,6.81185185 C13.4020714,6.81185185 12.9568333,6.52381481 12.6220952,5.951 C12.5512619,5.82755556 12.2080238,5.67314815 10.7193095,6.02881481 L10.5792619,6.06222222 C10.4954762,6.08137037 10.3890238,6.11844444 10.2684048,6.16122222 C9.73290476,6.34903704 8.8367619,6.66151852 8.25471429,5.99011111 C7.84469048,5.5162963 6.67330952,5.88418519 6.29566667,6.04918519 L4.30666667,6.78333333 L4.22854762,6.74259259 C4.17188095,6.71325926 2.84264286,6.017 2.08169048,5.48003704 C1.48911905,5.06203704 0.781595238,5.9567037 0.774309524,5.96607407 L0.438357143,5.60388889 C0.47802381,5.55418519 1.41059524,4.38166667 2.3152381,5.0212963 C2.94990476,5.46985185 4.03628571,6.05407407 4.33540476,6.21296296 L6.14752381,5.54440741 C6.31266667,5.47066667 7.88192857,4.81188889 8.5732619,5.60755556 C8.96385714,6.05896296 9.64304762,5.82144444 10.1384762,5.64788889 C10.2765,5.60022222 10.3975238,5.55866667 10.4930476,5.53585185 L10.6290476,5.50448148 C11.6004762,5.27348148 12.6637857,5.07385185 12.998119,5.64788889 C13.3085714,6.182 13.7169762,6.36859259 14.281619,6.23577778 C15.0644286,6.05122222 16.160119,5.68862963 16.3507619,5.58066667 L16.5462619,6.06425926 C16.2839762,6.21133333 15.1045,6.58737037 14.3710714,6.76011111 L14.3710714,6.76011111 Z M15.7071905,4.48148148 L1.12078571,4.48148148 C0.501904762,4.48148148 0,5.07181481 0,5.79862963 C0,6.52707407 0.501904762,7.11740741 1.12078571,7.11740741 L15.7071905,7.11740741 C16.3252619,7.11740741 16.8279762,6.52707407 16.8279762,5.79862963 C16.8279762,5.07181481 16.3252619,4.48148148 15.7071905,4.48148148 L15.7071905,4.48148148 Z" id="Fill-395" sketch:type="MSShapeGroup"></path>
        </g>
    </g>
</svg>