<?xml version="1.0" encoding="UTF-8" standalone="no"?>
<svg width="36px" height="36px" viewBox="0 0 36 36" version="1.1" xmlns="http://www.w3.org/2000/svg" xmlns:xlink="http://www.w3.org/1999/xlink" xmlns:sketch="http://www.bohemiancoding.com/sketch/ns">
    <!-- Generator: Sketch 3.1 (8751) - http://www.bohemiancoding.com/sketch -->
    <title>Vector 1</title>
    <desc>Created with Sketch.</desc>
    <defs></defs>
    <g id="Page-1" stroke="none" stroke-width="1" fill="none" fill-rule="evenodd" sketch:type="MSPage">
        <path d="M23.1287555,18.6454169 L22.0162401,17.5329015 L31.645679,7.90140235 L32.7581945,9.01391775 L23.1287555,18.6454169 L23.1287555,18.6454169 Z M20.9078452,16.4203861 L19.7953297,15.3078707 L29.4227084,5.67637153 L30.5372841,6.78888694 L20.9078452,16.4203861 L20.9078452,16.4203861 Z M17.5723591,13.0828398 L27.2017981,3.46164178 L28.3153436,4.57415719 L18.6859047,14.1953553 L17.5723591,13.0828398 L17.5723591,13.0828398 Z M33.6832304,2.53454561 C30.7669979,-0.3806568 24.6749459,0.979084254 20.0755188,5.58366191 C16.1209386,9.53927225 14.5551762,14.5867959 16.0405902,17.7904282 L11.1032881,22.72464 L10.0762715,21.6945332 L1,30.7697746 L5.4449111,35.2095352 L14.5201525,26.1342937 L13.4890156,25.114488 L18.4304382,20.169975 C21.6237694,21.6533289 26.6743833,20.0978676 30.6279335,16.1422572 C35.2304509,11.5376796 36.5974027,5.44974802 33.6832304,2.53454561 L33.6832304,2.53454561 Z" id="Fill-802" fill="#F8F8F7" sketch:type="MSShapeGroup"></path>
    </g>
</svg>