<?xml version="1.0" encoding="UTF-8" standalone="no"?>
<svg width="36px" height="36px" viewBox="0 0 36 36" version="1.1" xmlns="http://www.w3.org/2000/svg" xmlns:xlink="http://www.w3.org/1999/xlink" xmlns:sketch="http://www.bohemiancoding.com/sketch/ns">
    <!-- Generator: Sketch 3.1 (8751) - http://www.bohemiancoding.com/sketch -->
    <title>Vector 1</title>
    <desc>Created with Sketch.</desc>
    <defs></defs>
    <g id="Page-1" stroke="none" stroke-width="1" fill="none" fill-rule="evenodd" sketch:type="MSPage">
        <g id="Fill-176-+-Fill-177-+-Fill-178" sketch:type="MSLayerGroup" transform="translate(3.000000, 1.000000)" fill="#F8F8F7">
            <path d="M14.5222222,9.40666667 C14.4188889,9.26273333 11.96,5.78226667 11.1111111,0.266333333 L12.7488889,0 C13.5444444,5.11586667 15.8433333,8.3742 15.8677778,8.40593333 L14.5222222,9.40666667" id="Fill-176" sketch:type="MSShapeGroup"></path>
            <path d="M15.5555556,7.30949376 C16.0833333,5.88036043 16.8277778,4.90796043 17.6366667,4.07496043 C18.4566667,3.26009376 19.3533333,2.62429376 20.33,2.14376043 C21.3066667,1.66209376 22.3566667,1.34022709 23.49,1.19856043 C24.6344444,1.07502709 25.8433333,1.09089376 27.2677778,1.56802709 C26.7455556,3.00169376 26.0011111,3.97522709 25.1911111,4.80822709 C24.3722222,5.62309376 23.4711111,6.25776043 22.4933333,6.73376043 C21.5133333,7.20862709 20.4633333,7.53049376 19.33,7.67329376 C18.1855556,7.79569376 16.9788889,7.78096043 15.5555556,7.30949376" id="Fill-177" sketch:type="MSShapeGroup"></path>
            <path d="M14.7902062,8.43225973 C7.90909505,6.73339307 -0.490904946,9.27999307 0.0224283871,17.5057264 C0.0224283871,24.4847931 4.55576172,33.9163931 12.3524284,34.5079931 C12.6068728,34.5272597 15.8368728,34.0059264 16.4535395,34.5363264 C24.6068728,34.5363264 29.5535395,24.7137264 29.5535395,17.5057264 C30.0690951,9.27999307 21.6646506,6.73339307 14.7902062,8.43225973" id="Fill-178" sketch:type="MSShapeGroup"></path>
        </g>
    </g>
</svg>