<?xml version="1.0" encoding="UTF-8" standalone="no"?>
<svg width="36px" height="36px" viewBox="0 0 36 36" version="1.1" xmlns="http://www.w3.org/2000/svg" xmlns:xlink="http://www.w3.org/1999/xlink" xmlns:sketch="http://www.bohemiancoding.com/sketch/ns">
    <!-- Generator: Sketch 3.1 (8751) - http://www.bohemiancoding.com/sketch -->
    <title>Vector 1</title>
    <desc>Created with Sketch.</desc>
    <defs></defs>
    <g id="Page-1" stroke="none" stroke-width="1" fill="none" fill-rule="evenodd" sketch:type="MSPage">
        <g id="Group" sketch:type="MSLayerGroup" transform="translate(0.000000, 5.000000)" fill="#F8F8F7">
            <path d="M3.60815057,8.6996 C4.41410975,8.14542857 4.62276282,7.03411429 4.07541588,6.22217143 C3.52513016,5.40725714 0.751660774,4.45714286 0.751660774,4.45714286 C0.751660774,4.45714286 0.607660774,7.41371429 1.15868118,8.22937143 C1.70676282,9.04502857 2.80366077,9.25451429 3.60815057,8.6996" id="Fill-360" sketch:type="MSShapeGroup"></path>
            <path d="M12.8188974,5.33668571 C13.8313056,4.98605714 14.3735096,3.87474286 14.0289382,2.8496 C13.6821627,1.82222857 11.0181627,0 11.0181627,0 C11.0181627,0 10.0116321,3.09251429 10.3584076,4.11542857 C10.7051831,5.13982857 11.8064892,5.68731429 12.8188974,5.33668571" id="Fill-361" sketch:type="MSShapeGroup"></path>
            <path d="M32.3215927,8.61194286 C33.1099192,9.18988571 34.2134294,9.01085714 34.7842866,8.21525714 C35.3558784,7.41817143 35.3007764,4.45714286 35.3007764,4.45714286 C35.3007764,4.45714286 32.4986539,5.32257143 31.9270621,6.11891429 C31.3562049,6.91674286 31.5317968,8.03325714 32.3215927,8.61194286" id="Fill-362" sketch:type="MSShapeGroup"></path>
            <path d="M26.0610612,19.9717143 C26.1925714,19.6812571 26.2983673,19.4390857 26.3674286,19.2734286 C26.731102,19.2793714 27.0999184,19.1894857 27.4327347,18.9837143 C27.5363265,18.9198286 27.6281633,18.8425714 27.7155918,18.7638286 C27.7214694,18.8581714 27.7413061,18.954 27.7611429,19.0498286 C27.5091429,19.8394857 27.2850612,20.6061143 27.0896327,21.3207429 C27.0418776,21.0949143 26.9625306,20.8713143 26.8324898,20.6655429 C26.6936327,20.4404571 26.4085714,20.2042286 26.0610612,19.9717143 L26.0610612,19.9717143 Z M21.8395102,19.2749143 L21.734449,19.3529143 L21.8725714,18.1910857 C22.5146939,18.5290857 23.3059592,18.5387429 23.9752653,18.1428 C24.139102,18.0454857 24.3132245,17.8731429 24.4888163,17.6599429 C24.5402449,17.9296 24.6107755,18.1621143 24.7077551,18.3225714 C24.8693878,18.5885143 25.0839184,18.7957714 25.327102,18.954 C24.9450612,18.9339429 24.5049796,18.9198286 24.0604898,18.9205714 C23.5498776,18.6954857 23.1737143,18.5521143 23.1737143,18.5521143 C23.1737143,18.5521143 23.1604898,18.7118286 23.1457959,18.9614286 C22.6028571,19.0089714 22.123102,19.1025714 21.8395102,19.2749143 L21.8395102,19.2749143 Z M20.4325714,19.2407429 C20.3370612,19.1538286 20.2048163,19.0706286 20.0534694,18.9933714 C20.1188571,18.7229714 20.1570612,18.5506286 20.1570612,18.5506286 C20.1570612,18.5506286 19.7243265,18.5803429 19.1277551,18.6464571 C18.6362449,18.5068 18.0940408,18.3938857 17.5929796,18.3084571 C17.9074286,18.2475429 18.2093878,18.1138286 18.477551,17.9095429 C19.2159184,18.0908 20.0262857,17.8850286 20.5831837,17.2825714 C20.6742857,17.1837714 20.7506939,17.0768 20.8204898,16.9676 C20.8542857,17.0641714 20.9020408,17.1570286 20.9505306,17.2521143 C20.9108571,18.1643429 20.8932245,19.0438857 20.8932245,19.8595429 C20.7786122,19.6344571 20.6287347,19.4234857 20.4325714,19.2407429 L20.4325714,19.2407429 Z M15.1589388,20.1797143 C15.182449,19.3648 15.1912653,18.4852571 15.1795102,17.5745143 C15.2294694,17.4801714 15.280898,17.3850857 15.316898,17.29 C15.3837551,17.4014286 15.4564898,17.5098857 15.5461224,17.6116571 C15.7290612,17.8233714 15.9472653,17.9845714 16.1816327,18.1086286 C16.036898,18.0930286 15.9472653,18.0833714 15.9472653,18.0833714 C15.9472653,18.0833714 16.0405714,18.5870286 16.2029388,19.2585714 C15.9715102,19.3529143 15.7738776,19.4561714 15.6386939,19.5735429 C15.4366531,19.7488571 15.280898,19.9568571 15.1589388,20.1797143 L15.1589388,20.1797143 Z M14.2317551,19.5668571 C13.9525714,19.3848571 13.4757551,19.2778857 12.933551,19.214 C12.9276735,18.9621714 12.9188571,18.8032 12.9188571,18.8032 C12.9188571,18.8032 12.537551,18.9361714 12.0217959,19.1471429 C11.5758367,19.1300571 11.1357551,19.1308 10.7529796,19.1419429 C11.0013061,18.9904 11.2231837,18.7905714 11.3921633,18.5290857 C11.493551,18.3708571 11.5706939,18.1398286 11.6302041,17.8731429 C11.7991837,18.0900571 11.9674286,18.2661143 12.1297959,18.3693714 C12.7873469,18.7861143 13.5786122,18.7994857 14.229551,18.4822857 L14.3324082,19.6470857 L14.2317551,19.5668571 L14.2317551,19.5668571 Z M9.19983673,20.8059429 C9.06391837,21.0094857 8.97722449,21.2293714 8.92359184,21.4552 C8.74946939,20.7353714 8.54742857,19.9605714 8.31820408,19.1627429 C8.34171429,19.0691429 8.3637551,18.9733143 8.37257143,18.8804571 C8.45779592,18.9614286 8.54816327,19.0379429 8.64955102,19.1062857 C8.9757551,19.3232 9.34163265,19.4242286 9.70457143,19.4286857 C9.76995918,19.5965714 9.86693878,19.8417143 9.99183673,20.1366286 C9.6362449,20.3572571 9.34604082,20.5845714 9.19983673,20.8059429 L9.19983673,20.8059429 Z M15.1501224,15.3860571 L15.0972245,15.2909714 C15.0546122,14.5592571 14.9914286,13.8223429 14.9084082,13.0913714 L15.002449,12.9494857 L15.0303673,12.8811429 C15.3345306,13.1678857 15.705551,13.3409714 16.092,13.3974286 C16.1346122,13.6106286 16.1919184,13.8862286 16.2639184,14.1989714 C16.0501224,14.2918286 15.8657143,14.3936 15.7386122,14.5065143 C15.460898,14.7524 15.2706122,15.0592 15.1501224,15.3860571 L15.1501224,15.3860571 Z M18.5120816,12.4688571 C19.250449,13.2377143 20.4472653,13.2696571 21.2348571,12.5684 L21.259102,12.6367429 L21.3502041,12.7823429 C21.2466122,13.5118286 21.1628571,14.2472571 21.0982041,14.9774857 L21.043102,15.0703429 C20.932898,14.7382857 20.7514286,14.4262857 20.4803265,14.1707429 C20.3914286,14.0868 20.2702041,14.0080571 20.1313469,13.9345143 C20.2033469,13.6254857 20.2437551,13.4249143 20.2437551,13.4249143 C20.2437551,13.4249143 19.7728163,13.4613143 19.1306939,13.5445143 C18.5583673,13.3766286 17.9199184,13.2481143 17.3666939,13.1522857 C17.5048163,13.0705714 17.6370612,12.9799429 17.7553469,12.8618286 C17.9294694,12.6924571 18.0881633,12.3960571 18.232898,12.0432 C18.3203265,12.2185143 18.412898,12.3656 18.5120816,12.4688571 L18.5120816,12.4688571 Z M33.5960816,12.9093714 C34.5386939,12.6530857 36.3372245,10.3182857 36.3372245,10.3182857 C36.3372245,10.3182857 33.6217959,9.20622857 32.6806531,9.46325714 C32.5212245,9.50634286 32.3786939,9.57617143 32.2435102,9.65714286 C32.2582041,9.51154286 32.2604082,9.36 32.2361633,9.20622857 C32.0818776,8.23234286 29.9733061,6.18131429 29.9733061,6.18131429 C29.9733061,6.18131429 28.5979592,8.79542857 28.7515102,9.76708571 C28.9028571,10.7417143 29.8087347,11.4028571 30.7711837,11.2483429 C30.996,11.2112 31.2031837,11.1294857 31.3890612,11.0202857 L31.3809796,11.2171429 C30.9783673,11.7742857 30.5992653,12.3826857 30.2458776,13.0304571 L30.1187755,13.0913714 C30.0879184,12.8870857 30.0269388,12.6865143 29.9248163,12.4963429 C29.4428571,11.6130857 26.7127347,10.3784571 26.7127347,10.3784571 C26.7127347,10.3784571 26.2858776,13.3714286 26.7663673,14.2539429 C27.2299592,15.1082286 28.2724898,15.4313714 29.1306122,15.0072 L29.1372245,15.0718286 L29.1820408,15.2233714 C28.9160816,15.8354857 28.6684898,16.4594857 28.4370612,17.0849714 L28.3643265,17.1533143 C28.3466939,16.8353714 28.2614694,16.5174286 28.0851429,16.2269714 C27.8052245,15.7656571 26.9287347,15.2397143 26.1066122,14.8214857 C26.2866122,14.4248 26.3990204,14.1529143 26.3990204,14.1529143 C26.3990204,14.1529143 23.7577959,13.8431429 22.3523265,14.1447429 L22.4118367,13.6455429 C22.8901224,13.8067429 23.4293878,13.7837143 23.9164898,13.5385714 C24.8973061,13.0430857 26.3608163,10.0679429 26.3608163,10.0679429 C26.3608163,10.0679429 24.1905306,9.65862857 22.8688163,9.78342857 L22.9966531,8.7048 C23.6049796,9.33474286 24.5762449,9.4952 25.360898,9.02868571 C26.2836735,8.48045714 27.5150204,5.47337143 27.5150204,5.47337143 C27.5150204,5.47337143 24.3198367,5.09897143 23.3955918,5.65017143 C23.2398367,5.74228571 23.1097959,5.85891429 22.9885714,5.98445714 C22.9621224,5.82251429 22.9209796,5.66354286 22.8519184,5.50754286 C22.4074286,4.52102857 19.5795918,2.97142857 19.5795918,2.97142857 C19.5795918,2.97142857 18.8772245,6.14342857 19.3202449,7.13068571 C19.7632653,8.1172 20.9130612,8.55102857 21.888,8.10308571 C22.1164898,7.99685714 22.3119184,7.852 22.4757551,7.67891429 C22.4875102,7.75022857 22.5051429,7.82005714 22.5249796,7.88914286 C22.2590204,8.59931429 22.0334694,9.35702857 21.8439184,10.1481714 L21.7293061,10.2477143 C21.6352653,10.0426857 21.5140408,9.84582857 21.3494694,9.67497143 C20.5861224,8.88085714 17.3358367,8.3772 17.3358367,8.3772 C17.3358367,8.3772 17.3718367,8.66468571 17.4423673,9.08291429 C16.4968163,9.27977143 15.4116735,9.58211429 14.9995102,9.98325714 C14.8305306,10.1511429 14.7034286,10.3428 14.6057143,10.5448571 L14.4925714,10.4393714 C14.3265306,9.64451429 14.1237551,8.88085714 13.8783673,8.16548571 C13.9004082,8.09714286 13.9195102,8.02731429 13.9334694,7.95822857 C14.092898,8.13354286 14.2831837,8.28508571 14.5087347,8.39725714 C15.470449,8.87491429 16.632,8.47451429 17.1044082,7.50211429 C17.5746122,6.52971429 16.9662857,3.33542857 16.9662857,3.33542857 C16.9662857,3.33542857 14.092898,4.80257143 13.6219592,5.77497143 C13.5477551,5.928 13.5014694,6.08548571 13.4691429,6.2452 C13.3530612,6.11668571 13.2266939,5.9956 13.0731429,5.89828571 C12.1665306,5.32405714 8.96032653,5.60114286 8.96032653,5.60114286 C8.96032653,5.60114286 10.1020408,8.64314286 11.0101224,9.22034286 C11.7808163,9.70988571 12.7557551,9.57765714 13.3831837,8.96628571 L13.4794286,10.0456571 C12.1613878,9.88371429 9.98008163,10.2261714 9.98008163,10.2261714 C9.98008163,10.2261714 11.356898,13.2466286 12.3237551,13.7688571 C12.8020408,14.0296 13.3398367,14.0682286 13.824,13.9226286 L13.8680816,14.4218286 C12.4721633,14.0793714 9.82285714,14.3111429 9.82285714,14.3111429 C9.82285714,14.3111429 9.92644898,14.586 10.0961633,14.9878857 C9.26228571,15.3816 8.36963265,15.8800571 8.0764898,16.3346857 C7.89208163,16.6192 7.79877551,16.9349143 7.77085714,17.2521143 L7.70106122,17.1815429 C7.48873469,16.5493714 7.25804082,15.9179429 7.00971429,15.2954286 L7.05893878,15.1461143 L7.06702041,15.0822286 C7.91265306,15.5309143 8.96326531,15.2397143 9.45257143,14.4002857 C9.9602449,13.5326286 9.61861224,10.5285143 9.61861224,10.5285143 C9.61861224,10.5285143 6.85469388,11.6806857 6.3477551,12.5483429 C6.23902041,12.7348 6.17363265,12.9338857 6.13542857,13.1381714 L6.012,13.0735429 C5.6762449,12.4161143 5.31404082,11.7965714 4.92906122,11.2275429 L4.92685714,11.0292 C5.10906122,11.1458286 5.31257143,11.232 5.53665306,11.2758286 C6.49469388,11.4600571 7.41893878,10.8241714 7.59893878,9.85845714 C7.78261224,8.88754286 6.48367347,6.23405714 6.48367347,6.23405714 C6.48367347,6.23405714 4.31338776,8.22194286 4.13265306,9.19285714 C4.10473469,9.3444 4.10179592,9.4952 4.11281633,9.64154286 C3.97910204,9.55685714 3.8395102,9.48331429 3.68081633,9.43502857 C2.74702041,9.152 0,10.1786286 0,10.1786286 C0,10.1786286 1.73020408,12.5684 2.66473469,12.8521714 C3.45673469,13.0936 4.28032653,12.74 4.68514286,12.0506286 L5.0275102,12.9769714 C3.83142857,13.1552571 2.00130612,13.988 2.00130612,13.988 C2.00130612,13.988 3.93208163,16.2990286 4.90334694,16.5211429 C5.38677551,16.6340571 5.86653061,16.536 6.25518367,16.2893714 L6.41387755,16.7172571 C5.10832653,16.7588571 2.83959184,17.6086857 2.83959184,17.6086857 C2.83959184,17.6086857 4.78579592,20.2896571 5.83420408,20.6061143 C6.51012245,20.8118857 7.20661224,20.6298857 7.70253061,20.1923429 L8.07061224,21.1892571 L7.96261224,21.1424571 C6.91714286,20.8148571 3.82408163,21.9454857 3.82408163,21.9454857 C3.82408163,21.9454857 5.74677551,24.6420571 6.7922449,24.9696571 C7.70914286,25.2564 8.676,24.8352 9.11681633,24.0106286 L9.82285714,25.9138286 C9.82285714,25.9138286 9.66783673,24.8723429 9.33869388,23.2967429 L9.3482449,23.2232 C9.46138776,23.3569143 9.58628571,23.4824571 9.73763265,23.5849714 C10.5053878,24.1079429 11.4986939,24.0069143 12.1577143,23.4141143 C12.9996735,23.8048571 13.9900408,23.6146857 14.625551,22.9446286 L14.8231837,25.1694857 C14.8231837,25.1694857 14.9605714,24.0217714 15.0663673,22.2567429 L15.0986939,22.1817143 C15.1802449,22.3555429 15.2757551,22.5241714 15.4050612,22.6779429 C16.1654694,23.5693714 17.4732245,23.6912 18.3827755,22.9788 C19.1483265,23.1934857 20.0013061,22.984 20.5743673,22.3488571 C20.7080816,22.1988 20.8102041,22.0346286 20.8961633,21.8637714 L20.925551,21.9388 C20.978449,23.7075429 21.0827755,24.8597143 21.0827755,24.8597143 L21.3465306,22.6393143 C21.9629388,23.3286857 22.9474286,23.5470857 23.7996735,23.1845714 C24.4410612,23.7966857 25.4306939,23.9252 26.2153469,23.426 C26.3674286,23.3286857 26.4952653,23.2061143 26.6120816,23.0783429 L26.6201633,23.1533714 C26.2454694,24.7170857 26.0610612,25.7518857 26.0610612,25.7518857 L26.8214694,23.8709714 C27.2380408,24.7066857 28.1916735,25.1583429 29.1173878,24.8990857 C30.1716735,24.6012 32.1715102,21.9625714 32.1715102,21.9625714 C32.1715102,21.9625714 29.1129796,20.7405714 28.0594286,21.0369714 L27.9492245,21.0800571 L28.3466939,20.0957714 C28.8301224,20.5474286 29.5207347,20.7509714 30.2032653,20.5652571 C31.2619592,20.2807429 33.2838367,17.6569714 33.2838367,17.6569714 C33.2838367,17.6569714 31.0393469,16.7395429 29.7352653,16.6608 L29.906449,16.2373714 C30.2884898,16.4944 30.7660408,16.6065714 31.2524082,16.51 C32.229551,16.3183429 34.2271837,14.0637714 34.2271837,14.0637714 C34.2271837,14.0637714 32.4205714,13.1775429 31.231102,12.9613714 L31.5999184,12.0491429 C31.9841633,12.7496571 32.7982041,13.1270286 33.5960816,12.9093714 L33.5960816,12.9093714 Z" id="Fill-363" sketch:type="MSShapeGroup"></path>
            <path d="M22.5659649,5.28097143 C23.5680874,5.66131429 24.6862915,5.14874286 25.0602507,4.13474286 C25.4378833,3.12074286 24.5224547,0 24.5224547,0 C24.5224547,0 21.8048221,1.74422857 21.4301282,2.75748571 C21.0539649,3.77074286 21.5623731,4.90285714 22.5659649,5.28097143" id="Fill-364" sketch:type="MSShapeGroup"></path>
        </g>
    </g>
</svg>