<?xml version="1.0" encoding="UTF-8" standalone="no"?>
<svg width="36px" height="36px" viewBox="0 0 36 36" version="1.1" xmlns="http://www.w3.org/2000/svg" xmlns:xlink="http://www.w3.org/1999/xlink" xmlns:sketch="http://www.bohemiancoding.com/sketch/ns">
    <!-- Generator: Sketch 3.1 (8751) - http://www.bohemiancoding.com/sketch -->
    <title>Vector 1</title>
    <desc>Created with Sketch.</desc>
    <defs></defs>
    <g id="Page-1" stroke="none" stroke-width="1" fill="none" fill-rule="evenodd" sketch:type="MSPage">
        <g id="Group" sketch:type="MSLayerGroup" transform="translate(2.000000, 0.000000)" fill="#F8F8F7">
            <path d="M21.92,16.0682927 C21.8828108,16.7268293 21.7833514,17.3765854 21.6328649,18.0087805 L1.42183784,18.0087805 C1.27221622,17.3765854 1.16843243,16.7268293 1.1347027,16.0682927 L21.92,16.0682927 L21.92,16.0682927 Z M11.5260541,26.0604878 C6.95783784,26.0604878 3.07113514,23.0487805 1.67524324,18.8868293 L21.376,18.8868293 C19.9835676,23.0487805 16.0985946,26.0604878 11.5260541,26.0604878 L11.5260541,26.0604878 Z M0,15.497561 C0,21.9512195 5.17016216,27.2019512 11.5260541,27.2019512 C17.8836757,27.2019512 23.0547027,21.9512195 23.0547027,15.497561 L23.0547027,14.9268293 L0,14.9268293 L0,15.497561 L0,15.497561 Z" id="Fill-739" sketch:type="MSShapeGroup"></path>
            <path d="M20.5912235,27.1108708 C20.3118721,26.4611147 19.5594397,26.1625781 18.9220343,26.4523342 C18.2803046,26.7333098 17.9879803,27.4884318 18.2690613,28.1469684 L20.6716559,33.7050172 C20.9536019,34.3547733 21.7008451,34.6533098 22.3408451,34.3635537 C22.98171,34.0825781 23.2731694,33.3186757 22.994683,32.6689196 L20.5912235,27.1108708" id="Fill-740" sketch:type="MSShapeGroup"></path>
            <path d="M5.04248734,26.4523342 C4.40162248,26.1625781 3.65351437,26.4611147 3.37329815,27.1108708 L0.971568424,32.6689196 C0.691352208,33.3186757 0.981946803,34.0825781 1.6219468,34.3635537 C2.26367653,34.6533098 3.01005491,34.3547733 3.29113599,33.7050172 L5.69632518,28.1469684 C5.9765414,27.4884318 5.68421707,26.7333098 5.04248734,26.4523342" id="Fill-741" sketch:type="MSShapeGroup"></path>
            <path d="M12.3623784,28.097561 C11.744,28.097561 11.2432432,28.5980488 11.2432432,29.2302439 L11.2432432,34.7707317 C11.2432432,35.4029268 11.744,35.9121951 12.3623784,35.9121951 C12.9807568,35.9121951 13.4806486,35.4029268 13.4806486,34.7707317 L13.4806486,29.2302439 C13.4806486,28.5980488 12.9807568,28.097561 12.3623784,28.097561" id="Fill-742" sketch:type="MSShapeGroup"></path>
            <path d="M15.5078919,9.53560976 C15.475027,9.37756098 15.4317838,9.2195122 15.3565405,9.06146341 C15.2164324,8.73658537 15.0097297,8.41170732 14.6136216,8.08682927 L14.4994595,8.08682927 L14.4605405,9.53560976 L11.4067027,9.53560976 L11.4067027,8.96487805 C11.4101622,8.78926829 11.4041081,8.61365854 11.411027,8.43804878 C11.2441081,8.25365854 11.0806486,8.07804878 10.8488649,7.90243902 C10.6153514,8.07804878 10.451027,8.25365854 10.2815135,8.43804878 C10.2936216,8.61365854 10.284973,8.78926829 10.2867027,8.96487805 L10.2867027,9.53560976 L7.66875676,9.53560976 C7.61340541,8.99121951 7.48021622,8.44682927 7.13772973,7.90243902 C6.79437838,8.44682927 6.66291892,8.99121951 6.6067027,9.53560976 L4.32432432,9.53560976 L4.32432432,10.5278049 L6.6092973,10.5278049 C6.66291892,11.0809756 6.80043243,11.6165854 7.13772973,12.1697561 C7.47589189,11.6165854 7.61340541,11.0809756 7.66702703,10.5278049 L10.2867027,10.5278049 L10.2867027,11.6341463 C10.4570811,11.8097561 10.624,11.9853659 10.8488649,12.1697561 C11.072,11.9853659 11.2380541,11.8097561 11.4067027,11.6341463 L11.4067027,10.5278049 L14.4605405,10.5278049 L14.4994595,11.9765854 L14.6136216,11.9765854 C15.0088649,11.6517073 15.2138378,11.3268293 15.3530811,11.0107317 C15.4283243,10.8439024 15.475027,10.6858537 15.5052973,10.5278049 L31.6134054,10.5278049 L31.6134054,9.53560976 L15.5078919,9.53560976" id="Fill-743" sketch:type="MSShapeGroup"></path>
            <path d="M9.98954506,7.08585366 C10.207491,5.57560976 10.4150586,4.01268293 11.2738694,3.20487805 C11.6725721,2.78341463 12.402518,2.53756098 13.1272748,2.63414634 C13.855491,2.73073171 14.5344099,3.07317073 15.1501937,3.48585366 C15.7599234,3.92487805 16.4509505,4.35512195 17.2120315,4.61853659 C17.9592748,4.87317073 18.8500856,5.12780488 19.8135451,4.71512195 C20.2779775,4.50439024 20.6749505,4.09170732 20.8600315,3.65268293 C21.0606802,3.20487805 21.1212207,2.76585366 21.1220856,2.34439024 C21.1117072,1.49268293 20.9058694,0.72 20.5469505,0 L20.4405721,0.0351219512 C20.4336532,0.807804878 20.4077072,1.57170732 20.2459775,2.24780488 C20.0911667,2.93268293 19.7875991,3.4595122 19.3361397,3.60878049 C18.8829505,3.79317073 18.1901937,3.75804878 17.5130045,3.59121951 C16.8288964,3.40682927 16.1560315,3.17853659 15.4217613,2.92390244 C14.6797072,2.67804878 13.9437072,2.4497561 13.1895451,2.27414634 C12.4561397,2.09853659 11.5445721,1.93170732 10.7160315,2.4497561 C9.91170722,2.98536585 9.60986938,3.93365854 9.53635587,4.73268293 C9.45765317,5.55804878 9.5847883,6.35707317 9.87970722,7.10341463 L9.98954506,7.08585366" id="Fill-744" sketch:type="MSShapeGroup"></path>
        </g>
    </g>
</svg>