<?xml version="1.0" encoding="UTF-8" standalone="no"?>
<svg width="36px" height="36px" viewBox="0 0 36 36" version="1.1" xmlns="http://www.w3.org/2000/svg" xmlns:xlink="http://www.w3.org/1999/xlink" xmlns:sketch="http://www.bohemiancoding.com/sketch/ns">
    <!-- Generator: Sketch 3.1 (8751) - http://www.bohemiancoding.com/sketch -->
    <title>Vector 1</title>
    <desc>Created with Sketch.</desc>
    <defs></defs>
    <g id="Page-1" stroke="none" stroke-width="1" fill="none" fill-rule="evenodd" sketch:type="MSPage">
        <g id="Fill-702-+-Fill-703-+-Fill-704" sketch:type="MSLayerGroup" transform="translate(0.000000, 1.000000)" fill="#F8F8F7">
            <path d="M30.3269268,23.8875 L22.3867317,23.98375 L18.3389268,17.17625 L22.2313171,10.2725 L30.1723902,10.185 L34.2193171,16.9925 L30.3269268,23.8875 L30.3269268,23.8875 Z M30.9837073,8.75 L21.3875122,8.855 L16.6829268,17.19375 L21.5745366,25.41875 L31.1707317,25.31375 L35.8761951,16.975 L30.9837073,8.75 L30.9837073,8.75 Z" id="Fill-702" sketch:type="MSShapeGroup"></path>
            <path d="M5.5475122,1.53125 L13.4903415,1.44375 L17.5363902,8.25125 L13.644,15.14625 L5.70380488,15.23375 L1.65687805,8.42625 L5.5475122,1.53125 L5.5475122,1.53125 Z M14.4886829,16.56375 L19.1923902,8.23375 L14.2999024,0 L4.70458537,0.11375 L0,8.44375 L4.8924878,16.6775 L14.4886829,16.56375 L14.4886829,16.56375 Z" id="Fill-703" sketch:type="MSShapeGroup"></path>
            <path d="M14.5211707,33.52125 L6.58097561,33.60875 L2.53317073,26.80125 L6.42468293,19.8975 L14.3675122,19.81 L18.413561,26.6175 L14.5211707,33.52125 L14.5211707,33.52125 Z M5.58263415,18.48 L0.87804878,26.81875 L5.76965854,35.04375 L15.3658537,34.93875 L20.070439,26.6 L15.1779512,18.375 L5.58263415,18.48 L5.58263415,18.48 Z" id="Fill-704" sketch:type="MSShapeGroup"></path>
        </g>
    </g>
</svg>