<?xml version="1.0" encoding="UTF-8" standalone="no"?>
<svg width="36px" height="36px" viewBox="0 0 36 36" version="1.1" xmlns="http://www.w3.org/2000/svg" xmlns:xlink="http://www.w3.org/1999/xlink" xmlns:sketch="http://www.bohemiancoding.com/sketch/ns">
    <!-- Generator: Sketch 3.1 (8751) - http://www.bohemiancoding.com/sketch -->
    <title>Vector 1</title>
    <desc>Created with Sketch.</desc>
    <defs></defs>
    <g id="Page-1" stroke="none" stroke-width="1" fill="none" fill-rule="evenodd" sketch:type="MSPage">
        <g id="Fill-347-+-Fill-348" sketch:type="MSLayerGroup" transform="translate(0.000000, 2.000000)" fill="#F8F8F7">
            <path d="M29.6867368,7.43725714 L29.5777895,7.44762857 C28.9421053,5.79668571 27.3467368,4.61905714 25.4633684,4.61905714 L25.3828421,4.62754286 C25.0332632,2.98791429 23.5743158,1.75748571 21.8216842,1.75748571 L21.8131579,1.75748571 C21.2750526,0.718457143 20.1978947,0 18.9416842,0 C17.3046316,0 15.9631579,1.2144 15.7462105,2.7852 C15.2270526,2.5476 14.6538947,2.40617143 14.0466316,2.40617143 C13.2565263,2.40617143 12.5242105,2.63905714 11.9008421,3.02751429 C11.3570526,2.63905714 10.6948421,2.40617143 9.97578947,2.40617143 C8.13884211,2.40617143 6.65336842,3.88551429 6.65336842,5.71182857 C6.65336842,5.91925714 6.67705263,6.12385714 6.714,6.3228 L6.60221053,6.31242857 C4.40715789,6.31242857 2.57873684,7.86908571 2.16568421,9.93205714 C0.858315789,10.8438 0,12.3457714 0,14.0561143 C0,16.6989429 2.05484211,18.8477143 4.66010526,19.0532571 C4.85431579,19.4784857 5.10536842,19.8612857 5.39052632,20.2233429 C5.922,22.8963429 8.28568421,24.9140571 11.1287368,24.9140571 C11.9055789,24.9140571 12.6426316,24.7509429 13.3171579,24.4728 L13.3171579,24.2427429 L13.7188421,24.0654857 C14.4644211,23.7336 14.9447368,22.9991143 14.9447368,22.1948571 C14.9447368,21.5622 14.6595789,21.1077429 14.418,20.8380857 L13.8401053,20.196 L14.6093684,19.7934 C15.2924211,19.4322857 15.7149474,18.7421143 15.7149474,17.9887714 C15.7149474,17.7247714 15.6628421,17.4664286 15.5605263,17.2137429 L15.1768421,16.2831429 L18.0208421,16.2831429 L18.2197895,16.4839714 C18.8857895,17.1524571 19.7772632,17.4664286 20.7966316,17.2458 L21.618,17.0732571 L21.618,19.0938 L21.1973684,19.2644571 C20.4176842,19.5840857 19.9146316,20.3251714 19.9146316,21.1624286 C19.9146316,21.9968571 20.4176842,22.7398286 21.1973684,23.0575714 L21.618,23.2291714 L21.618,24.4426286 C22.3057895,24.7283143 23.0447368,24.9140571 23.8348421,24.9140571 C27.0672632,24.9140571 29.6867368,22.3032857 29.6867368,19.0872 C32.9191579,19.0872 35.5376842,16.4802 35.5376842,13.2612857 C35.5376842,10.0452 32.9191579,7.43725714 29.6867368,7.43725714" id="Fill-347" sketch:type="MSShapeGroup"></path>
            <path d="M19.4494737,21.1737429 C19.4494737,20.0357143 20.1571579,19.0598571 21.1575789,18.6525429 L21.1575789,17.919 C20.9197895,17.9708571 20.6772632,18.0000857 20.4233684,18.0000857 C19.4561053,18.0000857 18.5835789,17.6059714 17.9526316,16.9714286 L16.4055789,16.9714286 C16.5363158,17.2891714 16.6111579,17.6342571 16.6111579,18.0000857 C16.6111579,19.0466571 16.0114737,19.9461429 15.1408421,20.4043714 C15.57,20.8833429 15.8409474,21.5112857 15.8409474,22.2080571 C15.8409474,23.3168571 15.1711579,24.2691429 14.2105263,24.6943714 L14.2105263,32.8962857 L21.1575789,32.8962857 L21.1575789,23.6977714 C20.1571579,23.2895143 19.4494737,22.3146 19.4494737,21.1737429" id="Fill-348" sketch:type="MSShapeGroup"></path>
        </g>
    </g>
</svg>