<?xml version="1.0" encoding="UTF-8" standalone="no"?>
<svg width="36px" height="36px" viewBox="0 0 36 36" version="1.1" xmlns="http://www.w3.org/2000/svg" xmlns:xlink="http://www.w3.org/1999/xlink" xmlns:sketch="http://www.bohemiancoding.com/sketch/ns">
    <!-- Generator: Sketch 3.1 (8751) - http://www.bohemiancoding.com/sketch -->
    <title>Vector 1</title>
    <desc>Created with Sketch.</desc>
    <defs></defs>
    <g id="Page-1" stroke="none" stroke-width="1" fill="none" fill-rule="evenodd" sketch:type="MSPage">
        <g id="Fill-650-+-Fill-651" sketch:type="MSLayerGroup" transform="translate(7.000000, 0.000000)" fill="#F8F8F7">
            <path d="M8.6825,0.195428571 L8.18904545,9.40114286 L6.04063636,9.40114286 L5.85559091,0 L4.36477273,0 L4.14,9.40114286 L2.30940909,9.40114286 L1.54831818,0.185142857 L0,0.195428571 L0,9.72 L0.0104545455,9.72 C0.109772727,12.7542857 1.63404545,13.0525714 3.69881818,13.9165714 L3.66013636,13.9165714 L3.66013636,34.0765714 C5.43322727,35.8251429 6.80381818,34.0765714 6.80381818,34.0765714 L6.80381818,13.9165714 C6.80381818,13.9165714 10.1879545,12.7542857 10.2841364,9.72 L10.2977273,9.72 L10.2977273,0.195428571 L8.6825,0.195428571" id="Fill-650" sketch:type="MSShapeGroup"></path>
            <path d="M19.0189091,0 L14.6363636,0 L14.6363636,35.7428571 L19.0189091,35.7428571 L19.0189091,16.848 L22.8191364,16.848 C24.9999545,7.45714286 19.0189091,0 19.0189091,0" id="Fill-651" sketch:type="MSShapeGroup"></path>
        </g>
    </g>
</svg>