<?xml version="1.0" encoding="UTF-8" standalone="no"?>
<svg width="36px" height="36px" viewBox="0 0 36 36" version="1.1" xmlns="http://www.w3.org/2000/svg" xmlns:xlink="http://www.w3.org/1999/xlink" xmlns:sketch="http://www.bohemiancoding.com/sketch/ns">
    <!-- Generator: Sketch 3.1 (8751) - http://www.bohemiancoding.com/sketch -->
    <title>Vector 1</title>
    <desc>Created with Sketch.</desc>
    <defs></defs>
    <g id="Page-1" stroke="none" stroke-width="1" fill="none" fill-rule="evenodd" sketch:type="MSPage">
        <g id="Group" sketch:type="MSLayerGroup" transform="translate(0.000000, 7.000000)" fill="#F8F8F7">
            <path d="M17.959814,0.996666667 C12.2877209,0.996666667 7.67888372,5.69037037 7.67888372,11.4574074 C7.67888372,17.2244444 12.2877209,21.9181481 17.959814,21.9181481 C23.6302326,21.9181481 28.2415814,17.2244444 28.2415814,11.4574074 C28.2415814,5.69037037 23.6302326,0.996666667 17.959814,0.996666667 L17.959814,0.996666667 Z M17.959814,22.9148148 C11.7493953,22.9148148 6.69767442,17.7781481 6.69767442,11.4574074 C6.69767442,5.14518519 11.7493953,0 17.959814,0 C24.1702326,0 29.2211163,5.14518519 29.2211163,11.4574074 C29.2211163,17.7781481 24.1702326,22.9148148 17.959814,22.9148148 L17.959814,22.9148148 Z" id="Fill-665" sketch:type="MSShapeGroup"></path>
            <path d="M27.4947907,11.4318519 C27.4947907,16.807037 23.2124651,21.16 17.9338605,21.16 C12.6544186,21.16 8.37209302,16.807037 8.37209302,11.4318519 C8.37209302,6.06518519 12.6544186,1.7037037 17.9338605,1.7037037 C23.2124651,1.7037037 27.4947907,6.06518519 27.4947907,11.4318519" id="Fill-666" sketch:type="MSShapeGroup"></path>
            <path d="M4.98474419,0.962592593 L4.70093023,6.43148148 L3.46855814,6.43148148 L3.36306977,0.851851852 L2.50995349,0.851851852 L2.37683721,6.43148148 L1.32613953,6.43148148 L0.889953488,0.962592593 L0,0.962592593 L0,6.61888889 L0.00753488372,6.61888889 C0.063627907,8.42481481 0.939348837,8.59518519 2.12316279,9.11481481 L2.10223256,9.11481481 L2.10223256,21.0748148 C3.11944186,22.1140741 3.90474419,21.0833333 3.90474419,21.0833333 L3.90725581,12.7437037 L3.90474419,12.7437037 L3.90474419,9.11481481 C3.90474419,9.11481481 5.84790698,8.42481481 5.904,6.61888889 L5.91069767,6.61888889 L5.90986047,0.962592593 L4.98474419,0.962592593" id="Fill-667" sketch:type="MSShapeGroup"></path>
            <path d="M33.4917209,0.851851852 L30.9767442,0.851851852 L30.9767442,22.0714815 L33.4917209,22.0714815 L33.4917209,10.8525926 L35.6726512,10.8525926 C36.9242791,5.28148148 33.4917209,0.851851852 33.4917209,0.851851852" id="Fill-668" sketch:type="MSShapeGroup"></path>
        </g>
    </g>
</svg>