<?xml version="1.0" encoding="UTF-8" standalone="no"?>
<svg width="36px" height="36px" viewBox="0 0 36 36" version="1.1" xmlns="http://www.w3.org/2000/svg" xmlns:xlink="http://www.w3.org/1999/xlink" xmlns:sketch="http://www.bohemiancoding.com/sketch/ns">
    <!-- Generator: Sketch 3.1 (8751) - http://www.bohemiancoding.com/sketch -->
    <title>Vector 1</title>
    <desc>Created with Sketch.</desc>
    <defs></defs>
    <g id="Page-1" stroke="none" stroke-width="1" fill="none" fill-rule="evenodd" sketch:type="MSPage">
        <g id="Group" sketch:type="MSLayerGroup" transform="translate(0.000000, 1.000000)" fill="#F8F8F7">
            <path d="M16.2418378,25.84 C16.3663784,25.8691429 16.4928649,25.908 16.6203243,25.9371429 C16.4928649,25.908 16.3663784,25.8691429 16.2418378,25.84 L16.2418378,25.84 Z M16.92,26.0245714 C18.1673514,26.3451429 19.4798919,26.5977143 20.8225946,26.7531429 L20.8371892,26.7628571 C19.4847568,26.6074286 18.1731892,26.3548571 16.92,26.0245714 L16.92,26.0245714 Z M0.429081081,17.0582857 L0.342486486,16.9902857 L0.429081081,17.0582857 L0.429081081,17.0582857 Z M0.288,16.9417143 L0.204324324,16.864 L0.288,16.9417143 L0.288,16.9417143 Z M0.587675676,17.1942857 L0.505945946,17.1262857 L0.587675676,17.1942857 L0.587675676,17.1942857 Z M0.781297297,17.3497143 L0.716108108,17.2914286 L0.781297297,17.3497143 L0.781297297,17.3497143 Z M1.83502703,18.1851429 L1.80389189,18.156 L1.83502703,18.1851429 L1.83502703,18.1851429 Z M2.18043243,18.4474286 L2.11718919,18.3988571 L2.18043243,18.4474286 L2.18043243,18.4474286 Z M2.53654054,18.7194286 L2.45189189,18.6514286 L2.53654054,18.7194286 L2.53654054,18.7194286 Z M2.90627027,18.9914286 L2.80994595,18.9234286 L2.90627027,18.9914286 L2.90627027,18.9914286 Z M3.30616216,19.2828571 L3.18745946,19.1857143 L3.30616216,19.2828571 L3.30616216,19.2828571 Z M3.71578378,19.5742857 L3.58443243,19.4771429 L3.71578378,19.5742857 L3.71578378,19.5742857 Z M1.10627027,14.212 C1.90605405,12.4342857 4.13708108,11.424 7.22043243,11.424 C7.66410811,11.424 8.12043243,11.4531429 8.5787027,11.492 L3.85394595,18.7582857 C2.41491892,17.7382857 1.36216216,16.8737143 0.845513514,16.4365714 L0.832864865,16.3588571 C0.725837838,15.572 0.81827027,14.8531429 1.10627027,14.212 L1.10627027,14.212 Z M8.74508108,22.712 L8.50864865,22.576 L8.74508108,22.712 L8.74508108,22.712 Z M9.32594595,23.0131429 L9.07881081,22.8868571 L9.32594595,23.0131429 L9.32594595,23.0131429 Z M9.91362162,23.324 L9.66843243,23.1977143 L9.91362162,23.324 L9.91362162,23.324 Z M10.5178378,23.6251429 L10.2668108,23.4988571 L10.5178378,23.6251429 L10.5178378,23.6251429 Z M14.759027,13.1725714 L14.7794595,13.1822857 C15.5977297,13.4931429 16.2252973,13.9205714 16.7331892,14.4062857 L10.8418378,22.9548571 C9.87956757,22.4885714 8.96205405,21.9931429 8.09221622,21.488 L14.0468108,12.8811429 C14.2754595,12.9685714 14.5099459,13.0657143 14.7356757,13.1628571 L14.759027,13.1725714 L14.759027,13.1725714 Z M11.1317838,23.9165714 L10.8846486,23.8 L11.1317838,23.9165714 L11.1317838,23.9165714 Z M11.7505946,24.1982857 L11.5530811,24.1011429 L11.7505946,24.1982857 L11.7505946,24.1982857 Z M7.61935135,22.0708571 L7.39751351,21.9445714 L7.61935135,22.0708571 L7.61935135,22.0708571 Z M8.172,22.3914286 L7.94724324,22.2651429 L8.172,22.3914286 L8.172,22.3914286 Z M5.06043243,20.4874286 L4.8852973,20.3708571 L5.06043243,20.4874286 L5.06043243,20.4874286 Z M5.53816216,20.7982857 L5.35913514,20.6817143 L5.53816216,20.7982857 L5.53816216,20.7982857 Z M6.03924324,21.1188571 L5.84367568,20.9925714 L6.03924324,21.1188571 L6.03924324,21.1188571 Z M6.55491892,21.4394286 L6.34475676,21.3034286 L6.55491892,21.4394286 L6.55491892,21.4394286 Z M7.07935135,21.76 L6.86335135,21.624 L7.07935135,21.76 L7.07935135,21.76 Z M4.14681081,19.8657143 L3.99989189,19.7685714 L4.14681081,19.8657143 L4.14681081,19.8657143 Z M4.59535135,20.1765714 L4.43383784,20.06 L4.59535135,20.1765714 L4.59535135,20.1765714 Z M4.76464865,19.3994286 L9.89513514,11.6668571 C10.8934054,11.8417143 11.9198919,12.104 12.9366486,12.4537143 L7.13189189,20.9245714 C6.27956757,20.4 5.48659459,19.8851429 4.76464865,19.3994286 L4.76464865,19.3994286 Z M19.5703784,18.1657143 L15.0956757,24.7034286 C14.1966486,24.4022857 13.3822703,24.0914286 12.6700541,23.7902857 C12.3985946,23.6737143 12.131027,23.5474286 11.8624865,23.4308571 L17.4755676,15.2417143 C17.7869189,15.6497143 18.0564324,16.0674286 18.3220541,16.4851429 C18.7034595,17.0777143 19.0887568,17.6702857 19.5703784,18.1657143 L19.5703784,18.1657143 Z M25.2690811,18.6708571 L20.1162162,25.9177143 C18.7219459,25.7137143 17.4025946,25.4028571 16.2048649,25.0531429 L20.4499459,18.8554286 C20.9588108,19.1468571 21.564,19.3217143 22.3229189,19.3217143 C23.1557838,19.3217143 24.1180541,19.108 25.2690811,18.6708571 L25.2690811,18.6708571 Z M30.3012973,18.2531429 L24.7845405,26.1411429 C24.3758919,26.1605714 23.9662703,26.18 23.5517838,26.18 C22.8123243,26.18 22.0855135,26.1314286 21.3742703,26.0634286 L26.9766486,18.1851429 C27.4971892,18.088 28.0050811,18.0297143 28.5071351,18.0297143 C29.1444324,18.0297143 29.7437838,18.1171429 30.3012973,18.2531429 L30.3012973,18.2531429 Z M35.1321081,22.3622857 C32.4904865,24.3537143 29.5054054,25.5777143 26.2352432,26.0051429 L31.3997838,18.632 C33.3165405,19.4577143 34.6144865,21.0217143 35.1321081,22.3622857 L35.1321081,22.3622857 Z M36.0914595,23.0228571 L36.0914595,23.0228571 L36.1303784,22.6634286 C31.2771892,26.5297143 25.8285405,27.336 20.8741622,26.7725714 L20.8780541,26.7628571 C21.7566486,26.86 22.6488649,26.9182857 23.5517838,26.9182857 C27.6927568,26.9182857 32.0283243,25.7817143 35.999027,22.6245714 C35.3558919,20.196 32.5702703,17.2914286 28.5071351,17.2914286 C27.4251892,17.2914286 26.2585946,17.4954286 25.0170811,17.9714286 C23.904,18.3988571 23.0292973,18.5834286 22.3229189,18.5834286 C21.7118919,18.5834286 21.2254054,18.4377143 20.8138378,18.2045714 L20.4090811,17.9325714 C18.8134054,16.6405714 18.3434595,13.7457143 15.0402162,12.4925714 C12.3343784,11.2685714 9.60227027,10.6857143 7.22043243,10.6857143 C3.97459459,10.6857143 1.38648649,11.7834286 0.431027027,13.9011429 C0.0739459459,14.688 -0.0243243243,15.5622857 0.100216216,16.456 L0.0467027027,16.2811429 L0.0467027027,16.1062857 C0.00486486486,16.2908571 0.00583783784,16.4754286 0.0467027027,16.66 L0.0467027027,16.728 L0.184864865,16.8542857 C0.0768648649,16.7571429 0.0165405405,16.7085714 0.00972972973,16.6988571 C0.00972972973,16.6988571 0.0301621622,16.932 0.0408648649,17.0971429 L0.00972972973,17.068 L0,17.5828571 C0,17.5828571 0.036,17.2234286 0.0447567568,17.1262857 L0.0467027027,17.2525714 L0.0467027027,25.9274286 C0.0467027027,25.9274286 8.55243243,34.1942857 20.1463784,33.6405714 C20.1463784,33.6405714 33.8419459,33.728 36.1459459,29.3371429 L36.1459459,23.6542857 C36.1459459,23.4502857 36.1255135,23.2462857 36.0914595,23.0228571 L36.0914595,23.0228571 Z" id="Fill-773" sketch:type="MSShapeGroup"></path>
            <path d="M17.9694924,8.83028571 C18.2545735,9.248 18.6019248,9.61714286 19.0378167,9.86971429 L19.0932762,9.82114286 C18.6486275,8.95657143 18.2117627,8.14057143 18.1378167,7.33428571 C18.0813843,6.95542857 18.1446275,6.48914286 18.4647356,6.14914286 C18.6155464,5.984 18.8091681,5.85771429 19.0134924,5.75085714 C19.2197627,5.65371429 19.4659248,5.55657143 19.6819248,5.40114286 C19.8950059,5.25542857 20.106141,5.08057143 20.2598708,4.85714286 C20.4174924,4.624 20.5225735,4.37142857 20.5916545,4.10914286 C20.7230059,3.57485714 20.7103572,3.04057143 20.5906816,2.53542857 C20.46906,2.04 20.2686275,1.58342857 20.0146816,1.156 C19.7607356,0.728571429 19.4659248,0.330285714 19.0942491,0 L19.0358708,0.0485714286 C19.3413843,0.961714286 19.6576005,1.836 19.8171681,2.70057143 C19.8950059,3.13771429 19.9582491,3.56514286 19.9027897,3.97314286 C19.8453843,4.37142857 19.6974924,4.76 19.4153302,5.1 C19.2703572,5.26514286 19.0971681,5.40114286 18.8899248,5.53714286 C18.6826816,5.67314286 18.4851681,5.80914286 18.2973843,5.984 C18.1086275,6.14914286 17.9296005,6.33371429 17.7856005,6.56685714 C17.6386816,6.79028571 17.5443032,7.06228571 17.5199789,7.33428571 C17.4966275,7.616 17.5374924,7.888 17.6270059,8.14057143 C17.7136005,8.39314286 17.8313302,8.62628571 17.9694924,8.83028571" id="Fill-774" sketch:type="MSShapeGroup"></path>
            <path d="M21.8631784,12.716 C22.1472865,13.1434286 22.4965838,13.5028571 22.9334487,13.7554286 L22.9850162,13.7068571 C22.5423135,12.852 22.1073946,12.036 22.0305297,11.2297143 C21.9760432,10.8411429 22.0383135,10.3748571 22.3584216,10.0445714 C22.5072865,9.86971429 22.703827,9.74342857 22.9091243,9.63657143 C23.1134487,9.53942857 23.3596108,9.44228571 23.5736649,9.29657143 C23.7896649,9.15085714 23.9959351,8.96628571 24.1545297,8.74285714 C24.3102054,8.51942857 24.4191784,8.25714286 24.4853405,7.99485714 C24.6196108,7.47028571 24.6011243,6.92628571 24.4853405,6.43085714 C24.362746,5.92571429 24.1603676,5.46914286 23.9093405,5.04171429 C23.6495568,4.624 23.3576649,4.22571429 22.9879351,3.88571429 L22.9305297,3.93428571 C23.2340973,4.85714286 23.5542054,5.72171429 23.7098811,6.596 C23.7896649,7.02342857 23.8499892,7.45085714 23.7964757,7.85885714 C23.7410162,8.25714286 23.5931243,8.64571429 23.3090162,8.98571429 C23.1669622,9.16057143 22.993773,9.29657143 22.7836108,9.42285714 C22.5783135,9.55885714 22.3759351,9.70457143 22.1910703,9.86971429 C21.9984216,10.0348571 21.8213405,10.2291429 21.6773405,10.4525714 C21.5343135,10.676 21.4379892,10.948 21.409773,11.2297143 C21.3912865,11.5017143 21.4321514,11.7737143 21.5197189,12.0262857 C21.6072865,12.2788571 21.7220973,12.512 21.8631784,12.716" id="Fill-775" sketch:type="MSShapeGroup"></path>
            <path d="M25.7532464,12.716 C26.0383275,13.1434286 26.3876248,13.5028571 26.8215707,13.7554286 L26.8750842,13.7068571 C26.4333545,12.852 25.9945437,12.036 25.9196248,11.2297143 C25.8661113,10.8411429 25.9283815,10.3748571 26.2475167,10.0445714 C26.4002734,9.86971429 26.593895,9.74342857 26.7972464,9.63657143 C27.0064356,9.53942857 27.2496788,9.44228571 27.4637329,9.29657143 C27.6797329,9.15085714 27.889895,8.96628571 28.0436248,8.74285714 C28.2031923,8.51942857 28.3102194,8.25714286 28.3763815,7.99485714 C28.5116248,7.47028571 28.4960572,6.92628571 28.3744356,6.43085714 C28.252814,5.92571429 28.0494626,5.46914286 27.7984356,5.04171429 C27.5454626,4.624 27.2467599,4.22571429 26.8789761,3.88571429 L26.8176788,3.93428571 C27.1251383,4.85714286 27.4413545,5.72171429 27.5989761,6.596 C27.6797329,7.02342857 27.7410302,7.45085714 27.6884896,7.85885714 C27.6320572,8.25714286 27.4831923,8.64571429 27.1981113,8.98571429 C27.0580031,9.16057143 26.884814,9.29657143 26.6717329,9.42285714 C26.4683815,9.55885714 26.2679491,9.70457143 26.0830842,9.86971429 C25.8904356,10.0348571 25.7133545,10.2291429 25.5703275,10.4525714 C25.4243815,10.676 25.3261113,10.948 25.3017869,11.2297143 C25.2833004,11.5017143 25.3222194,11.7737143 25.4127058,12.0262857 C25.4993004,12.2788571 25.6141113,12.512 25.7532464,12.716" id="Fill-776" sketch:type="MSShapeGroup"></path>
        </g>
    </g>
</svg>