<?xml version="1.0" encoding="UTF-8" standalone="no"?>
<svg width="36px" height="36px" viewBox="0 0 36 36" version="1.1" xmlns="http://www.w3.org/2000/svg" xmlns:xlink="http://www.w3.org/1999/xlink" xmlns:sketch="http://www.bohemiancoding.com/sketch/ns">
    <!-- Generator: Sketch 3.1 (8751) - http://www.bohemiancoding.com/sketch -->
    <title>Vector 1</title>
    <desc>Created with Sketch.</desc>
    <defs></defs>
    <g id="Page-1" stroke="none" stroke-width="1" fill="none" fill-rule="evenodd" sketch:type="MSPage">
        <g id="mexican" sketch:type="MSLayerGroup" transform="translate(0.000000, 6.000000)" fill="#333333">
            <path d="M21.8169643,1.02459016 C22.0580357,1.02459016 22.1383929,0.778688525 22.21875,0.696721311 C22.4598214,0.614754098 22.78125,0.450819672 23.0223214,0.450819672 C23.7455357,0.450819672 24.8705357,1.2704918 25.59375,1.68032787 C25.7544643,1.8442623 26.15625,1.76229508 26.4776786,1.8442623 C26.9598214,1.92622951 27.5223214,2.17213115 28.0044643,2.41803279 C29.6116071,3.48360656 32.1830357,5.45081967 33.2276786,7.41803279 C30.1741071,5.28688525 26.71875,4.46721311 23.7455357,4.46721311 C20.1294643,4.46721311 16.1116071,5.45081967 12.5758929,7.41803279 C9.84375,8.89344262 6.70982143,12.2540984 5.34375,14.9590164 C4.54017857,16.5983607 3.65625,18.9754098 3.65625,20.8606557 C3.65625,21.0245902 3.57589286,21.5163934 4.05803571,21.5163934 C4.54017857,21.5163934 4.54017857,20.5327869 4.54017857,20.4508197 C4.70089286,19.3032787 4.94196429,18.0737705 5.34375,17.0081967 C6.30803571,14.1393443 9.44196429,10.2868852 12.4955357,8.48360656 C15.7098214,6.51639344 20.2901786,5.28688525 23.8258929,5.28688525 C27.4419643,5.28688525 31.7008929,6.43442623 34.9151786,10.0409836 C35.15625,10.2868852 35.2366071,10.7786885 35.3973214,11.1065574 C35.7991071,12.0081967 35.9598214,12.5 35.9598214,13.0737705 C35.9598214,16.1065574 32.5848214,17.0901639 30.1741071,17.9918033 C26.3973214,19.3032787 7.43303571,24.9590164 6.46875,24.9590164 C3.57589286,24.9590164 2.53125,22.2540984 1.00446429,19.3032787 C0.602678571,18.5655738 0.763392857,17.4180328 0.441964286,16.7622951 C0.120535714,15.8606557 -0.0401785714,16.0245902 -0.0401785714,15.3688525 C-0.0401785714,13.8934426 1.24553571,13.8114754 1.24553571,12.9098361 C1.24553571,12.6639344 0.84375,12.0901639 0.84375,11.5163934 C0.84375,9.46721311 3.25446429,8.97540984 3.25446429,8.7295082 C3.25446429,8.48360656 3.09375,8.07377049 3.09375,7.82786885 C3.09375,6.59836066 4.45982143,6.02459016 5.50446429,6.10655738 C5.50446429,5.86065574 5.42410714,5.53278689 5.42410714,5.28688525 C5.42410714,5.12295082 5.42410714,4.79508197 5.50446429,4.63114754 C5.90625,3.23770492 7.51339286,3.23770492 8.55803571,3.31967213 C8.55803571,3.31967213 8.63839286,3.31967213 8.63839286,3.23770492 C8.87946429,1.59836066 9.76339286,1.43442623 10.7276786,1.43442623 C10.8883929,1.43442623 12.09375,1.76229508 12.3348214,1.76229508 C12.4955357,1.76229508 12.9776786,0.860655738 13.4598214,0.532786885 C14.0223214,-0.0409836066 14.4241071,0.0409836066 14.9866071,0.0409836066 C15.9508929,0.0409836066 16.8348214,0.860655738 17.3169643,0.860655738 C17.6383929,0.860655738 18.4419643,-0.0409836066 19.40625,-0.0409836066 C20.3705357,-0.0409836066 21.5758929,1.02459016 21.8169643,1.02459016 L21.8169643,1.02459016 Z M17.3973214,1.68032787 C17.5580357,1.68032787 18.4419643,0.532786885 19.4866071,0.532786885 C20.7723214,0.532786885 21.5758929,1.76229508 21.8973214,1.76229508 C22.0580357,1.76229508 22.4598214,1.02459016 23.0223214,1.02459016 C23.90625,1.02459016 25.03125,2.17213115 25.4330357,2.25409836 C25.8348214,2.33606557 26.3973214,2.33606557 26.8794643,2.5 C27.6026786,2.74590164 28.8080357,3.40163934 29.6116071,4.30327869 C27.3616071,3.23770492 25.03125,2.99180328 22.8616071,2.99180328 C14.9866071,2.99180328 5.26339286,7.66393443 2.69196429,19.057377 L2.29017857,19.057377 C1.48660714,18.5655738 1.24553571,18.647541 1.24553571,17.9918033 C1.24553571,17.8278689 1.56696429,17.2540984 1.56696429,17.0901639 C1.56696429,16.7622951 0.441964286,16.1885246 0.441964286,15.3688525 C0.441964286,14.1393443 2.04910714,13.647541 2.04910714,13.2377049 C2.04910714,12.9918033 1.32589286,12.0081967 1.32589286,11.5163934 C1.32589286,9.71311475 3.89732143,9.46721311 3.89732143,8.89344262 C3.89732143,8.7295082 3.65625,8.07377049 3.65625,7.90983607 C3.65625,6.59836066 5.02232143,6.59836066 6.06696429,6.59836066 C6.06696429,6.51639344 6.14732143,6.51639344 6.14732143,6.2704918 C6.14732143,6.10655738 5.98660714,5.53278689 5.98660714,5.28688525 C5.98660714,3.48360656 7.99553571,3.89344262 8.95982143,3.89344262 C9.04017857,3.7295082 9.20089286,3.48360656 9.20089286,3.31967213 C9.20089286,2.25409836 10.0044643,1.92622951 10.6473214,1.92622951 C10.96875,1.92622951 12.4955357,2.41803279 12.4955357,2.41803279 C12.7366071,2.41803279 13.7008929,0.532786885 14.9866071,0.532786885 C16.4330357,0.532786885 16.9151786,1.68032787 17.3973214,1.68032787 L17.3973214,1.68032787 Z M22.4598214,7.66393443 L22.21875,7.66393443 L22.21875,7.17213115 C22.3794643,7.25409836 22.4598214,7.33606557 22.4598214,7.66393443 L22.4598214,7.66393443 Z M29.1294643,9.63114754 L28.8883929,9.63114754 L28.8883929,9.13934426 C29.0491071,9.22131148 29.1294643,9.3852459 29.1294643,9.63114754 L29.1294643,9.63114754 Z M26.0758929,11.9262295 L25.8348214,11.9262295 L25.8348214,11.4344262 C25.9955357,11.5163934 26.0758929,11.5983607 26.0758929,11.9262295 L26.0758929,11.9262295 Z M12.4151786,11.9262295 L12.4151786,12.1721311 L12.09375,12.1721311 L12.09375,11.6803279 C12.1741071,11.6803279 12.3348214,11.7622951 12.4151786,11.9262295 L12.4151786,11.9262295 Z M18.0401786,12.4180328 L17.7991071,12.4180328 L17.7991071,11.9262295 C17.9598214,12.0081967 18.0401786,12.0901639 18.0401786,12.4180328 L18.0401786,12.4180328 Z M30.09375,14.7131148 L29.8526786,14.7131148 L29.8526786,14.2213115 C30.0133929,14.3032787 30.09375,14.4672131 30.09375,14.7131148 L30.09375,14.7131148 Z M14.8258929,16.2704918 L14.8258929,16.7622951 L14.5848214,16.7622951 L14.5848214,16.2704918 L14.8258929,16.2704918 L14.8258929,16.2704918 Z M23.2633929,17.7459016 L23.0223214,17.7459016 L23.0223214,17.2540984 C23.1830357,17.3360656 23.2633929,17.5 23.2633929,17.7459016 L23.2633929,17.7459016 Z M6.79017857,19.9590164 L6.54910714,19.9590164 L6.54910714,19.4672131 C6.70982143,19.5491803 6.79017857,19.6311475 6.79017857,19.9590164 L6.79017857,19.9590164 Z M11.7723214,20.942623 L11.7723214,21.1885246 L11.4508929,21.1885246 L11.4508929,20.6967213 C11.53125,20.6967213 11.6919643,20.7786885 11.7723214,20.942623 L11.7723214,20.942623 Z" id="Shape" sketch:type="MSShapeGroup"></path>
        </g>
    </g>
</svg>