<?xml version="1.0" encoding="UTF-8" standalone="no"?>
<svg width="36px" height="36px" viewBox="0 0 36 36" version="1.1" xmlns="http://www.w3.org/2000/svg" xmlns:xlink="http://www.w3.org/1999/xlink" xmlns:sketch="http://www.bohemiancoding.com/sketch/ns">
    <!-- Generator: Sketch 3.1 (8751) - http://www.bohemiancoding.com/sketch -->
    <title>Vector 1</title>
    <desc>Created with Sketch.</desc>
    <defs></defs>
    <g id="Page-1" stroke="none" stroke-width="1" fill="none" fill-rule="evenodd" sketch:type="MSPage">
        <g id="Spaghetti" sketch:type="MSLayerGroup" transform="translate(1.000000, 10.000000)" fill="#000000">
            <g id="Group" sketch:type="MSShapeGroup">
                <path d="M31.1742222,7.48061538 C30.6950741,5.81476923 29.0026296,4.57784615 26.9878148,4.57784615 C26.5382593,4.57784615 26.1044444,4.63938462 25.6964444,4.75384615 C25.7272963,4.62646154 25.7474444,4.49538462 25.7474444,4.35876923 C25.7474444,3.40676923 24.9578889,2.63446154 23.9832222,2.63446154 C23.2515926,2.63446154 22.6238519,3.06953846 22.3568889,3.68984615 C20.7462963,1.52307692 17.9784444,0.0873846154 14.835963,0.0873846154 C14.835963,0.0873846154 14.835963,0.0873846154 14.8353333,0.0873846154 C12.217963,0.0873846154 9.80459259,1.07138462 8.12411111,2.74215385 C7.94466667,1.97538462 7.24577778,1.40184615 6.40711111,1.40184615 C5.43307407,1.40184615 4.64288889,2.17353846 4.64288889,3.12615385 C4.64288889,3.76861538 5.00681481,4.32246154 5.53948148,4.61907692 C4.32177778,5.17538462 3.4402963,6.23015385 3.23,7.48061538 L0.821037037,7.48061538 C0.280185185,7.48061538 -0.158666667,7.90953846 -0.158666667,8.43815385 C-0.158666667,8.96738462 0.280185185,9.39630769 0.821037037,9.39630769 L32.770963,9.39630769 C33.3118148,9.39630769 33.7506667,8.96738462 33.7506667,8.43815385 C33.7506667,7.90953846 33.3118148,7.48061538 32.770963,7.48061538 L31.1742222,7.48061538 L31.1742222,7.48061538 Z M6.23711111,7.48061538 C6.48266667,7.10215385 6.95488889,6.84184615 7.50392593,6.84184615 C8.05296296,6.84184615 8.52518519,7.10215385 8.77011111,7.48061538 L6.23711111,7.48061538 L6.23711111,7.48061538 Z M10.0394444,7.48061538 C9.75233333,6.456 8.72918519,5.69230769 7.50392593,5.69230769 C6.27866667,5.69230769 5.25551852,6.456 4.96840741,7.48061538 L4.42755556,7.48061538 C4.73481481,6.26153846 5.99596296,5.344 7.50392593,5.344 C9.01188889,5.344 10.2724074,6.26153846 10.5802963,7.48061538 L10.0394444,7.48061538 L10.0394444,7.48061538 Z M13.5691481,7.48061538 C13.8147037,7.10215385 14.2875556,6.84184615 14.835963,6.84184615 C15.3843704,6.84184615 15.8572222,7.10215385 16.1021481,7.48061538 L13.5691481,7.48061538 L13.5691481,7.48061538 Z M17.3714815,7.48061538 C17.0843704,6.456 16.0612222,5.69230769 14.835963,5.69230769 C13.6107037,5.69230769 12.5875556,6.456 12.3004444,7.48061538 L11.7778519,7.48061538 C11.7551852,7.34769231 11.7255926,7.21723077 11.6884444,7.08923077 L11.7438519,7.10153846 C12.0315926,5.83261538 13.3324074,4.912 14.8365926,4.912 C16.5170741,4.912 17.8827407,6.05353846 17.9708889,7.48061538 L17.3714815,7.48061538 L17.3714815,7.48061538 Z M19.1545926,7.48061538 C19.0695926,5.41784615 17.1681111,3.76184615 14.835963,3.76184615 C13.2077407,3.76184615 11.7614815,4.58707692 11.0254444,5.81969231 C10.8862963,5.64553846 10.7339259,5.47938462 10.5645556,5.32861538 C11.4768889,4.04492308 13.0937778,3.24861538 14.835963,3.24861538 C17.5565926,3.24861538 19.7735185,5.13661538 19.8490741,7.48061538 L19.1545926,7.48061538 L19.1545926,7.48061538 Z M21.0252222,7.48061538 C20.9515556,4.50276923 18.2063704,2.09907692 14.835963,2.09907692 C12.7097037,2.09907692 10.7263704,3.08676923 9.59681481,4.67815385 C9.2077037,4.48553846 8.78333333,4.34523077 8.33314815,4.26707692 C9.775,2.37907692 12.1814444,1.23630769 14.835963,1.23630769 C18.9279259,1.23630769 22.2907778,3.98892308 22.627,7.48 L21.0252222,7.48 L21.0252222,7.48061538 Z M23.5512963,6.10153846 C23.5431111,6.07384615 23.5349259,6.04553846 23.5267407,6.01784615 C23.5525556,6.02461538 23.5764815,6.03507692 23.6022963,6.04061538 C23.5846667,6.06030769 23.5689259,6.08123077 23.5512963,6.10153846 L23.5512963,6.10153846 Z M26.1094815,7.48061538 C26.3537778,7.32246154 26.656,7.22461538 26.9871852,7.22461538 C27.3183704,7.22461538 27.6205926,7.32246154 27.8648889,7.48061538 L26.1094815,7.48061538 L26.1094815,7.48061538 Z M29.3804074,7.48061538 C28.9717778,6.65476923 28.055037,6.07569231 26.9878148,6.07569231 C25.9205926,6.07569231 25.0038519,6.65476923 24.5945926,7.48061538 L24.049963,7.48061538 C24.502037,6.45846154 25.6435556,5.72738462 26.9884444,5.72738462 C28.3327037,5.72738462 29.4742222,6.45907692 29.9262963,7.48061538 L29.3804074,7.48061538 L29.3804074,7.48061538 Z" id="Shape"></path>
                <path d="M28.1079259,14.9729231 C28.888037,12.5372308 31.6275556,10.0984615 31.6275556,10.0984615 L1.76862963,10.0984615 C1.76862963,10.0984615 4.50814815,12.5366154 5.28825926,14.9729231 C5.48218519,15.5784615 6.01925926,16.1009231 6.66840741,16.1009231 L15.5543704,16.1009231 L17.8411852,16.1009231 L26.7277778,16.1009231 C27.3769259,16.1015385 27.914,15.5790769 28.1079259,14.9729231 L28.1079259,14.9729231 Z" id="Shape"></path>
            </g>
        </g>
    </g>
</svg>