<?xml version="1.0" encoding="UTF-8" standalone="no"?>
<svg width="36px" height="36px" viewBox="0 0 36 36" version="1.1" xmlns="http://www.w3.org/2000/svg" xmlns:xlink="http://www.w3.org/1999/xlink" xmlns:sketch="http://www.bohemiancoding.com/sketch/ns">
    <!-- Generator: Sketch 3.1 (8751) - http://www.bohemiancoding.com/sketch -->
    <title>Vector 1</title>
    <desc>Created with Sketch.</desc>
    <defs></defs>
    <g id="Page-1" stroke="none" stroke-width="1" fill="none" fill-rule="evenodd" sketch:type="MSPage">
        <g id="Fill-606-+-Fill-607" sketch:type="MSLayerGroup" transform="translate(3.000000, 3.000000)" fill="#000000">
            <path d="M17.091,21.35 C16.35,20.71 16.261,19.6 16.89,18.85 C17.529,18.11 18.645,18.02 19.386,18.66 C20.127,19.29 20.217,20.4 19.587,21.15 C18.951,21.89 17.839,21.98 17.091,21.35 L17.091,21.35 Z M9.065,20.49 C7.924,19.51 7.787,17.8 8.758,16.66 C9.731,15.52 11.445,15.38 12.585,16.35 C13.726,17.32 13.865,19.04 12.891,20.18 C11.921,21.32 10.209,21.46 9.065,20.49 L9.065,20.49 Z M16.99,9.93 C17.789,10.61 17.887,11.81 17.206,12.61 C16.523,13.42 15.327,13.51 14.523,12.83 C13.72,12.15 13.627,10.94 14.304,10.14 C14.989,9.34 16.188,9.25 16.99,9.93 L16.99,9.93 Z M21.411,13.15 C20.804,12.97 20.146,12.62 19.531,12.09 C18.127,10.9 17.504,9.33 18.14,8.58 C18.239,8.46 18.369,8.39 18.514,8.32 L13.527,0 L2,24.5 C3.156,25.04 4.348,25.54 5.608,25.92 C12.313,27.97 19.189,27.26 25.071,24.48 C25.071,24.48 26.923,23.72 27.198,22.81 L21.411,13.15 L21.411,13.15 Z" id="Fill-606" sketch:type="MSShapeGroup"></path>
            <path d="M13.849,31.37 C5.741,31.37 0.354,28.18 0,27.96 L1.697,25.17 L0.85,26.57 L1.694,25.17 C2.188,25.47 13.917,32.33 28.814,24 L30.406,26.84 C24.268,30.28 18.594,31.37 13.849,31.37" id="Fill-607" sketch:type="MSShapeGroup"></path>
        </g>
    </g>
</svg>