<?xml version="1.0" encoding="UTF-8" standalone="no"?>
<svg width="36px" height="36px" viewBox="0 0 36 36" version="1.1" xmlns="http://www.w3.org/2000/svg" xmlns:xlink="http://www.w3.org/1999/xlink" xmlns:sketch="http://www.bohemiancoding.com/sketch/ns">
    <!-- Generator: Sketch 3.1 (8751) - http://www.bohemiancoding.com/sketch -->
    <title>Vector 1</title>
    <desc>Created with Sketch.</desc>
    <defs></defs>
    <g id="Page-1" stroke="none" stroke-width="1" fill="none" fill-rule="evenodd" sketch:type="MSPage">
        <g id="Fill-375-+-Fill-376" sketch:type="MSLayerGroup" transform="translate(7.000000, 1.000000)" fill="#F8F8F7">
            <path d="M2.23014815,7.14244186 C2.23014815,3.99488372 6.16325926,1.33081395 10.8174815,1.33081395 C15.4741481,1.33081395 19.4048148,3.99488372 19.4048148,7.14244186 C19.4048148,10.2924419 15.4741481,12.9532558 10.8174815,12.9532558 C6.16325926,12.9532558 2.23014815,10.2924419 2.23014815,7.14244186 L2.23014815,7.14244186 Z M21.6374074,9.29534884 C21.6374074,4.16906977 16.7819259,0 10.8174815,0 C4.85222222,0 0,4.16906977 0,9.29534884 C0,14.1701163 1.48866667,26.6813953 9.52681481,27.895 L9.52681481,30.9115116 C8.36814815,30.9115116 7.42540741,31.7384884 7.42540741,32.7575581 C7.42540741,33.7790698 8.36814815,34.6060465 9.52681481,34.6060465 C10.0181481,34.6060465 10.4614074,34.4530233 10.8174815,34.2055814 C11.1743704,34.4530233 11.6184444,34.6060465 12.1081481,34.6060465 C13.2676296,34.6060465 14.2087407,33.7790698 14.2087407,32.7575581 C14.2087407,31.7384884 13.2676296,30.9115116 12.1081481,30.9115116 L12.1081481,27.8876744 C19.7853333,26.6227907 21.6374074,14.1595349 21.6374074,9.29534884 L21.6374074,9.29534884 Z" id="Fill-375" sketch:type="MSShapeGroup"></path>
            <path d="M15.0455556,7.38744186 C15.0455556,6.00453488 13.1380741,4.88372093 10.7832593,4.88372093 C8.43007407,4.88372093 6.51851852,6.00453488 6.51851852,7.38744186 C6.51851852,8.77116279 8.43007407,9.89197674 10.7832593,9.89197674 C13.1380741,9.89197674 15.0455556,8.77116279 15.0455556,7.38744186" id="Fill-376" sketch:type="MSShapeGroup"></path>
        </g>
    </g>
</svg>