<?xml version="1.0" encoding="UTF-8" standalone="no"?>
<svg width="36px" height="36px" viewBox="0 0 36 36" version="1.1" xmlns="http://www.w3.org/2000/svg" xmlns:xlink="http://www.w3.org/1999/xlink" xmlns:sketch="http://www.bohemiancoding.com/sketch/ns">
    <!-- Generator: Sketch 3.1 (8751) - http://www.bohemiancoding.com/sketch -->
    <title>Vector 1</title>
    <desc>Created with Sketch.</desc>
    <defs></defs>
    <g id="Page-1" stroke="none" stroke-width="1" fill="none" fill-rule="evenodd" sketch:type="MSPage">
        <path d="M31.4536656,20.0778509 L31.3383967,20.0507802 C30.406639,19.333842 28.9849881,18.9801758 27.4236172,19.1286282 C27.6873386,18.2658573 27.8296784,17.3480716 27.8296784,16.3979757 L27.8296784,12.4421534 C27.9213696,12.4997879 28.0174271,12.5565492 28.1178509,12.5967187 C28.5029541,13.2394306 29.226005,13.6463651 30.0241555,13.5765051 C31.1384224,13.4804476 31.9627704,12.4980414 31.8658396,11.3837745 L31.5733009,8.02088899 C31.4763701,6.90662207 30.8161932,-0.0942227083 29.7019263,0.000961535271 C28.5850396,0.100512029 28.9579173,7.25766855 29.0565946,8.37280872 L29.0539748,8.37717497 L27.4332229,7.2602883 C26.27704,3.76292228 22.6949687,1.96140765 18.4518473,1.96140765 C14.1589506,1.96140765 10.5454423,3.81095103 9.43466838,7.39214904 L8.00515822,8.37717497 L8.00341172,8.37280872 C8.10034247,7.25766855 8.47409344,0.100512029 7.35982652,0.000961535271 C6.24293984,-0.0942227083 5.58363614,6.90662207 5.48670539,8.02088899 L5.19503991,11.3837745 C5.09548942,12.4980414 5.92333036,13.4804476 7.03585079,13.5765051 C7.83487448,13.6463651 8.55879869,13.2394306 8.94040891,12.5967187 L9.07401615,12.5251122 L9.07401615,16.3979757 C9.07401615,17.5506656 9.29232864,18.6518338 9.67306561,19.6717897 C8.23045671,19.2037277 6.8175383,19.2517565 5.80980787,19.763481 L5.60808713,19.8036505 C3.78299476,20.3957139 3.46425853,24.4650586 4.89464193,28.9029148 C6.32851834,33.3381513 8.96922616,36.4565268 10.7908255,35.8670831 C12.5862274,35.2881184 12.9224286,31.3392822 11.5723842,26.9931172 L11.672808,26.9695395 C13.0787404,30.3210727 15.5849677,32.5618321 18.4518473,32.5618321 C21.2034578,32.5618321 23.6275997,30.507075 25.0606028,27.3808402 C23.6695157,31.5235379 23.8808422,35.2741464 25.5932853,35.9081259 C27.3921802,36.5717958 30.1630022,33.5686893 31.7820076,29.2006931 C33.39752,24.8257109 33.254307,20.7423941 31.4536656,20.0778509" id="Fill-374" fill="#F8F8F7" sketch:type="MSShapeGroup"></path>
    </g>
</svg>