<?xml version="1.0" encoding="UTF-8" standalone="no"?>
<svg width="36px" height="36px" viewBox="0 0 36 36" version="1.1" xmlns="http://www.w3.org/2000/svg" xmlns:xlink="http://www.w3.org/1999/xlink" xmlns:sketch="http://www.bohemiancoding.com/sketch/ns">
    <!-- Generator: Sketch 3.1 (8751) - http://www.bohemiancoding.com/sketch -->
    <title>Vector 1</title>
    <desc>Created with Sketch.</desc>
    <defs></defs>
    <g id="Page-1" stroke="none" stroke-width="1" fill="none" fill-rule="evenodd" sketch:type="MSPage">
        <g id="rice" sketch:type="MSLayerGroup" transform="translate(1.000000, 6.000000)" fill="#333333">
            <g id="Layer%201" sketch:type="MSShapeGroup">
                <path d="M33.96,6.8516129 L33.96,7.23870968 C33.72,8.63225806 33.64,9.87096774 33.24,11.2645161 C32.92,12.3483871 32.2,13.8193548 31.56,15.0580645 C30.28,17.5354839 26.44,20.7096774 24.12,21.5612903 C23.08,21.9483871 22.04,22.4129032 21,22.7225806 L21,23.9612903 L12.92,23.9612903 C12.76,23.2645161 13.24,22.5677419 12.12,22.4129032 C11.56,22.4129032 11.08,22.0258065 10.52,21.8709677 C7.88,21.0193548 3.8,17.8451613 2.28,15.0580645 C1,12.8129032 -0.04,9.63870968 -0.04,7.31612903 L-0.04,6.8516129 L33.96,6.8516129 L33.96,6.8516129 Z" id="Shape"></path>
                <path d="M16.68,0.890322581 C17,0.425806452 17.8,0.193548387 18.12,0.193548387 C18.6,0.193548387 19.32,0.425806452 19.64,0.890322581 C19.8,0.735483871 20.04,0.348387097 20.36,0.193548387 C20.6,-0.0387096774 21.08,-0.0387096774 21.32,-0.0387096774 C21.88,-0.0387096774 22.44,0.116129032 23,0.812903226 C23.4,0.425806452 23.96,0.193548387 24.36,0.193548387 C25,0.193548387 25.8,0.503225806 26.2,1.43225806 C26.36,1.27741935 27.32,0.967741935 27.4,0.967741935 C28.12,0.967741935 29.16,1.43225806 29.32,2.51612903 C29.48,2.51612903 29.64,2.43870968 29.8,2.43870968 C30.52,2.43870968 31,2.82580645 31.48,3.52258065 C31.64,3.75483871 32.2,3.90967742 32.44,4.29677419 C32.68,4.52903226 32.84,5.1483871 32.84,5.38064516 C32.84,5.53548387 32.68,6.07741935 32.52,6.38709677 L1,6.38709677 L1,5.69032258 C1.08,5.38064516 1.4,4.68387097 1.88,4.52903226 C2.12,4.4516129 2.36,4.37419355 2.52,4.21935484 C2.6,4.14193548 2.6,3.98709677 2.6,3.83225806 C2.68,2.90322581 3.8,2.43870968 4.44,2.43870968 C4.68,2.43870968 5.48,2.67096774 5.64,2.90322581 C5.8,2.67096774 5.88,2.28387097 6.2,2.0516129 C6.44,1.74193548 7.08,1.50967742 7.56,1.50967742 C7.72,1.50967742 8.12,1.66451613 8.36,1.74193548 C8.44,0.658064516 9.56,0.193548387 10.2,0.193548387 C10.6,0.193548387 11.16,0.425806452 11.64,0.812903226 C12.04,0.580645161 12.68,0.193548387 13.08,0.193548387 C13.32,0.193548387 13.64,0.348387097 13.8,0.348387097 C14.04,0.348387097 14.44,-0.0387096774 15,-0.0387096774 C15.4,-0.0387096774 16.36,0.116129032 16.68,0.890322581 L16.68,0.890322581 Z" id="Shape"></path>
            </g>
        </g>
    </g>
</svg>