<?xml version="1.0" encoding="UTF-8" standalone="no"?>
<svg width="36px" height="36px" viewBox="0 0 36 36" version="1.1" xmlns="http://www.w3.org/2000/svg" xmlns:xlink="http://www.w3.org/1999/xlink" xmlns:sketch="http://www.bohemiancoding.com/sketch/ns">
    <!-- Generator: Sketch 3.1 (8751) - http://www.bohemiancoding.com/sketch -->
    <title>Vector 1</title>
    <desc>Created with Sketch.</desc>
    <defs></defs>
    <g id="Page-1" stroke="none" stroke-width="1" fill="none" fill-rule="evenodd" sketch:type="MSPage">
        <g id="Fill-736-+-Fill-737-+-Fill-738" sketch:type="MSLayerGroup" transform="translate(0.000000, 5.000000)" fill="#F8F8F7">
            <path d="M33.4194146,5.43088663 C30.9547317,2.19959631 30.3348293,1.47669309 30.0257561,4.69056405 C29.7166829,7.90443502 25.7918049,8.58378986 25.7918049,8.58378986 C25.7918049,8.58378986 25.0999024,8.85378986 21.3910244,9.62895115 C15.8382439,10.282177 15.9927805,16.6141124 15.9927805,16.6141124 C12.4445854,14.4715318 17.5390244,10.0034673 17.5390244,10.0034673 C9.62956098,10.0034673 5.8302439,15.1770157 4.04341463,19.4273382 L1.31443902,19.4273382 L1.31443902,18.0512092 L0,18.0512092 L0,26.7434673 L34.2158049,26.7434673 L34.2158049,17.0060479 L32.8996098,17.0060479 L32.8996098,19.4273382 L31.1022439,19.4273382 C30.9389268,17.3108866 30.4603902,14.8895963 30.1802927,12.7905641 C29.4857561,7.57346728 32.1462439,9.62895115 32.1462439,9.62895115 C32.1462439,9.62895115 32.5483902,9.96862857 34.3457561,11.1966931 C37.1195122,13.574435 35.8858537,8.67088663 33.4194146,5.43088663" id="Fill-736" sketch:type="MSShapeGroup"></path>
            <path d="M14.4844851,6.89806452 C14.2026314,6.26225806 14.1078022,5.67 14.2105339,5.18225806 C14.3158997,4.70322581 14.5749241,4.26774194 14.9480948,3.84967742 C15.3923875,3.34451613 15.8524851,2.56935484 15.7831192,1.73322581 C15.7321924,0.897096774 15.1570705,0.209032258 14.4844851,0 C14.7961924,0.627096774 14.878729,1.21935484 14.7575583,1.68096774 C14.6232168,2.16 14.3536558,2.56064516 13.9453631,3.00483871 C13.474729,3.56225806 13.0813631,4.34612903 13.1884851,5.17354839 C13.2754119,5.99225806 13.8224363,6.65419355 14.4844851,6.89806452" id="Fill-737" sketch:type="MSShapeGroup"></path>
            <path d="M17.7938719,7.69064516 C17.6375792,7.16806452 17.6270426,6.74129032 17.7271402,6.42774194 C17.832506,6.11419355 18.0054816,5.84419355 18.2662621,5.55677419 C18.5972865,5.17354839 18.9625548,4.55516129 18.8835304,3.89322581 C18.8238231,3.22258065 18.335628,2.70870968 17.7938719,2.61290323 C17.9738719,3.12677419 17.9686036,3.55354839 17.8579694,3.84096774 C17.7315304,4.14580645 17.5594329,4.38967742 17.2644085,4.71193548 C16.9052865,5.13870968 16.5962134,5.76580645 16.7050914,6.41903226 C16.7937743,7.06354839 17.256506,7.56 17.7938719,7.69064516" id="Fill-738" sketch:type="MSShapeGroup"></path>
        </g>
    </g>
</svg>