<?xml version="1.0" encoding="UTF-8" standalone="no"?>
<svg width="36px" height="36px" viewBox="0 0 36 36" version="1.1" xmlns="http://www.w3.org/2000/svg" xmlns:xlink="http://www.w3.org/1999/xlink" xmlns:sketch="http://www.bohemiancoding.com/sketch/ns">
    <!-- Generator: Sketch 3.1 (8751) - http://www.bohemiancoding.com/sketch -->
    <title>Vector 1</title>
    <desc>Created with Sketch.</desc>
    <defs></defs>
    <g id="Page-1" stroke="none" stroke-width="1" fill="none" fill-rule="evenodd" sketch:type="MSPage">
        <g id="Group" sketch:type="MSLayerGroup" transform="translate(0.000000, 1.000000)" fill="#F8F8F7">
            <path d="M14.0334545,32.936129 L14.0334545,33.8354839 L25.0745455,33.8354839 L25.0745455,32.936129 C30.7276364,30.9070968 34.9549091,25.8729032 35.8363636,19.7419355 L3.27272727,19.7419355 C4.15418182,25.8729032 8.38036364,30.9070968 14.0334545,32.936129" id="Fill-724" sketch:type="MSShapeGroup"></path>
            <path d="M35.0945455,17.5483871 L2.18181818,17.5483871 C2.18181818,17.9541935 2.20036364,18.3490323 2.22872727,18.743871 L35.0465455,18.743871 C35.076,18.3490323 35.0945455,17.9541935 35.0945455,17.5483871" id="Fill-725" sketch:type="MSShapeGroup"></path>
            <path d="M17.1949091,8.60972797 C15.8029091,6.16392152 14.772,6.18585701 14.1818182,7.32650217 L14.7654545,9.1142441 C14.7654545,9.1142441 16.9396364,11.1213409 17.1949091,8.60972797" id="Fill-726" sketch:type="MSShapeGroup"></path>
            <path d="M32.3792727,6.60258755 C30.9207273,5.22065206 31.7738182,8.1600069 32.3792727,8.97161981 C32.9890909,9.77226497 29.1283636,10.8142005 28.9396364,7.07420045 C28.7509091,3.34516819 24.78,3.79484561 24.2912727,6.60258755 C24.2618182,6.76710368 24.2345455,6.92065206 24.2029091,7.07420045 C24.8138182,7.46903916 25.2785455,8.22581335 25.3396364,9.44323271 C25.4792727,12.1961359 27.6021818,12.3606521 28.4738182,11.9329101 C28.5752727,12.152265 28.6843636,12.3387166 28.7825455,12.4703295 C29.3923636,13.2819424 25.5305455,14.3238779 25.3396364,10.5838779 C25.2785455,9.36645851 24.8138182,8.60968432 24.2029091,8.20387787 C23.4992727,7.75420045 22.5992727,7.80903916 21.8825455,8.26968432 C21.3010909,8.64258755 20.8396364,9.26774884 20.6901818,10.1012972 C20.2036364,12.9200069 19.6723636,13.1832327 17.4054545,9.16903916 L17.3869091,9.13613593 C17.1316364,11.6477488 14.9574545,9.62968432 14.9574545,9.62968432 L14.3738182,7.85291013 C14.0094545,8.5767811 13.8141818,9.71742626 13.8141818,10.9787166 C13.8141818,14.2800069 11.3607273,11.9987166 11.3607273,11.9987166 L10.4138182,9.12516819 C10.4138182,9.12516819 9.56072727,8.40129722 9.01745455,8.14903916 C8.69018182,8.00645851 8.47854545,8.028394 8.63345455,8.48903916 C8.04763636,9.24581335 7.97018182,10.6606521 7.96363636,11.2529101 C7.67563636,11.044523 7.30472727,10.8142005 6.82472727,10.5838779 C4.18036364,9.32258755 4.36690909,13.8851682 4.36690909,13.8851682 L4.36363636,15.9580714 L31.1978182,15.9580714 L32.9421818,13.6000069 L33.42,12.9419424 C33.42,12.9419424 30.2509091,11.472265 28.7825455,10.1012972 C28.4378182,9.78323271 28.2250909,9.70645851 28.104,9.77226497 C27.8596364,8.88387787 27.8956364,8.13807142 28.7825455,8.97161981 C30.2509091,10.3316198 33.2083636,15.3109746 33.2083636,15.3109746 L32.7283636,15.9580714 L34.5807273,15.9580714 C34.5807273,15.9580714 37.2370909,11.1871037 32.3792727,6.60258755" id="Fill-727" sketch:type="MSShapeGroup"></path>
            <path d="M20.7578182,9.76232483 C20.9072727,8.90684096 21.3687273,8.28167967 21.9501818,7.91974419 C21.6872727,7.51393774 21.3992727,7.03135709 21.0709091,6.45006677 C18.8050909,2.43587322 17.4807273,4.95845387 17.4807273,8.25974419 C17.4807273,8.45716354 17.472,8.63264741 17.4545455,8.7861958 L17.4730909,8.81909903 C19.74,12.8332926 20.2712727,12.5700668 20.7578182,9.76232483" id="Fill-728" sketch:type="MSShapeGroup"></path>
            <path d="M11.0705455,11.7810974 C11.0705455,11.7810974 13.524,14.0623878 13.524,10.7610974 C13.524,9.49980712 13.7192727,8.34819422 14.0836364,7.63529099 L13.7225455,6.5385168 C13.7225455,6.5385168 10.8883636,4.13658131 12.2607273,6.58238777 C13.6385455,9.02819422 12.2127273,10.3662587 12.2127273,10.3662587 C12.2127273,10.3662587 12.7778182,9.26948454 10.1312727,7.99722648 C9.52472727,7.71206519 9.07309091,7.73400067 8.72727273,7.93142002 C9.27054545,8.18367809 10.1236364,8.90754906 10.1236364,8.90754906 L11.0705455,11.7810974" id="Fill-729" sketch:type="MSShapeGroup"></path>
            <path d="M6.3,15.9690323 L0,1.50258065 L3.42545455,0 L9.72218182,14.4664516 L6.3,15.9690323" id="Fill-730" sketch:type="MSShapeGroup"></path>
        </g>
    </g>
</svg>