<?xml version="1.0" encoding="UTF-8" standalone="no"?>
<svg width="36px" height="36px" viewBox="0 0 36 36" version="1.1" xmlns="http://www.w3.org/2000/svg" xmlns:xlink="http://www.w3.org/1999/xlink" xmlns:sketch="http://www.bohemiancoding.com/sketch/ns">
    <!-- Generator: Sketch 3.1 (8751) - http://www.bohemiancoding.com/sketch -->
    <title>Vector 1</title>
    <desc>Created with Sketch.</desc>
    <defs></defs>
    <g id="Page-1" stroke="none" stroke-width="1" fill="none" fill-rule="evenodd" sketch:type="MSPage">
        <path d="M34.3091633,22.0122629 C34.1314098,21.9389712 33.9587109,21.8985343 33.7868544,21.8505156 C34.1971196,20.8261162 34.1271976,19.63323 33.486948,18.634946 C30.0228604,13.2282061 24.1224544,10 17.7090062,10 C11.6443256,10 5.92672776,12.9586273 2.41546387,17.9112954 C1.51405976,19.1858976 1.58903636,20.8429648 2.46179773,22.0375359 C2.3286932,22.029954 2.19137649,22.0282691 2.04984762,22.0333237 C0.901610417,22.0703908 -0.0157999399,22.4991896 0.000206301447,22.9861163 C0.0195822778,23.4738854 0.963108081,23.8378168 2.10966042,23.7999073 C2.19558866,23.7982224 2.27309257,23.7872708 2.35480864,23.7813738 C2.12987883,24.7409058 2.25371659,25.5639636 2.67240617,25.6920135 C3.1399569,25.8352273 3.79115819,25.0635579 4.13065899,23.9658668 C4.19636883,23.7451491 4.24270268,23.5286436 4.27640003,23.3230898 C5.69253117,23.752731 7.28136123,23.2750711 8.18445021,21.9996264 C10.3722507,18.9129491 13.9315333,17.0705465 17.7090062,17.0705465 C21.7021422,17.0705465 25.3768383,19.0822783 27.5376808,22.4511709 C28.2107854,23.5025282 29.3522831,24.077068 30.5165266,24.077068 C31.1045453,24.077068 31.6917217,23.9085813 32.2350914,23.6002505 C32.2224549,23.7055547 32.208976,23.8091741 32.2064487,23.917848 C32.1457935,25.0652428 32.4920337,26.0163505 32.9798029,26.0390962 C33.4684145,26.0643692 33.9098497,25.1553832 33.9713474,24.0079884 C33.9747171,23.9212178 33.9730323,23.8378168 33.9730323,23.7518886 C34.9072913,24.0534799 35.7404583,24.0189401 35.9055753,23.612887 C36.087541,23.1605001 35.3731572,22.4427465 34.3091633,22.0122629" id="Fill-386" fill="#F8F8F7" sketch:type="MSShapeGroup"></path>
    </g>
</svg>