<?xml version="1.0" encoding="UTF-8" standalone="no"?>
<svg width="36px" height="36px" viewBox="0 0 36 36" version="1.1" xmlns="http://www.w3.org/2000/svg" xmlns:xlink="http://www.w3.org/1999/xlink" xmlns:sketch="http://www.bohemiancoding.com/sketch/ns">
    <!-- Generator: Sketch 3.1 (8751) - http://www.bohemiancoding.com/sketch -->
    <title>Vector 1</title>
    <desc>Created with Sketch.</desc>
    <defs></defs>
    <g id="Page-1" stroke="none" stroke-width="1" fill="none" fill-rule="evenodd" sketch:type="MSPage">
        <path d="M29.7450594,22.8065319 C28.261882,25.277934 26.0829138,26.3972497 24.5476361,26.4249805 C28.3845698,24.8997868 30.342532,20.3300878 29.5408599,15.472997 L29.5895989,15.4923246 C31.1727752,16.4444152 31.6257116,19.680515 29.7450594,22.8065319 L29.7450594,22.8065319 Z M5.03187886,20.7964694 C5.03187886,18.951111 7.57807006,16.8965112 11.2225688,16.8965112 C11.3158451,16.8965112 11.3906343,16.9107967 11.4797089,16.9141581 C11.6259258,17.6444023 11.8326463,18.3830499 12.1099543,19.1124538 C12.8015435,20.9536106 13.8309442,22.5401482 15.0595025,23.7964373 C14.0301018,24.3367676 12.7326367,24.6989486 11.2225688,24.6989486 C7.57807006,24.6989486 5.03187886,22.6409874 5.03187886,20.7964694 L5.03187886,20.7964694 Z M18.3014846,10.1764151 C18.556944,10.0839791 18.8140841,10.0352402 19.096434,10.0352402 C20.1502043,10.0352402 21.5048116,10.7377536 22.628329,12.0453027 C21.5317021,12.7973954 20.5090239,13.7419231 19.6317224,14.8889697 C18.7224885,14.0713314 17.6359455,13.3839438 16.4082275,12.8755459 C16.7057034,11.5175772 17.4056959,10.512546 18.3014846,10.1764151 L18.3014846,10.1764151 Z M22.6535388,21.7670472 C22.5594221,21.8031813 22.4611039,21.8225088 22.3678276,21.846038 C22.4132052,21.5015039 22.4493393,21.1510874 22.4493393,20.7964694 C22.4493393,20.5704214 22.4274908,20.3460541 22.4064826,20.1258883 C22.5871529,19.6687504 22.798075,19.218335 23.0568958,18.7864069 C23.532521,17.9990204 24.0778933,17.3662541 24.6484754,16.8435706 C24.8946912,19.2897629 23.9888186,21.2645316 22.6535388,21.7670472 L22.6535388,21.7670472 Z M32.1845291,11.1764044 C31.0013485,10.4646473 29.6786736,10.1310375 28.3190243,10.1310375 C28.0543212,10.1310375 27.7854166,10.1671715 27.5156716,10.191541 C25.4476265,6.97056712 22.2451398,5 19.096434,5 C18.2300568,5 17.3653601,5.15041856 16.5334363,5.46386058 C13.8855655,6.45712724 12.1116349,8.88567265 11.4813896,11.8713549 C11.3956762,11.8679936 11.3108032,11.85875 11.2225688,11.85875 C5.02347559,11.85875 0,15.8629088 0,20.7964694 C0,25.7333913 5.02347559,29.7358694 11.2225688,29.7358694 C13.8116167,29.7358694 16.1880618,29.0299946 18.0855205,27.8594189 C18.7115642,28.9022649 19.558614,29.7812471 20.6199471,30.420736 C21.8022874,31.1308124 23.1249623,31.466103 24.4854519,31.466103 C27.9938177,31.466103 31.7635252,29.2308328 34.0618199,25.4006217 C37.255063,20.0880736 36.4155762,13.7175537 32.1845291,11.1764044 L32.1845291,11.1764044 Z" id="Fill-451" fill="#F8F8F7" sketch:type="MSShapeGroup"></path>
    </g>
</svg>