<?xml version="1.0" encoding="UTF-8" standalone="no"?>
<svg width="36px" height="36px" viewBox="0 0 36 36" version="1.1" xmlns="http://www.w3.org/2000/svg" xmlns:xlink="http://www.w3.org/1999/xlink" xmlns:sketch="http://www.bohemiancoding.com/sketch/ns">
    <!-- Generator: Sketch 3.1 (8751) - http://www.bohemiancoding.com/sketch -->
    <title>Vector 1</title>
    <desc>Created with Sketch.</desc>
    <defs></defs>
    <g id="Page-1" stroke="none" stroke-width="1" fill="none" fill-rule="evenodd" sketch:type="MSPage">
        <g id="Group" sketch:type="MSLayerGroup" transform="translate(0.000000, 3.000000)" fill="#F8F8F7">
            <path d="M25.7063226,15.3966667 L25.6935484,15.3966667 L25.4403871,15.4311111 L25.4636129,15.4081481 C23.8772903,15.5 18.3797419,15.9133333 17.144129,15.9133333 C8.1243871,15.9133333 2.75109677,14.4092593 2.07754839,13.5137037 C2.75109677,12.6066667 8.1243871,11.1025926 17.144129,11.1025926 C20.2668387,11.1025926 25.7527742,11.3666667 28.7430968,12.1588889 C30.7323871,12.6181481 31.9192258,13.1233333 32.211871,13.5137037 C31.7926452,14.0762963 29.5327742,14.8685185 25.7063226,15.3966667 L25.7063226,15.3966667 Z M30.0019355,26.372963 C30.9936774,25.42 31.6614194,24.18 31.6614194,22.8137037 L34.2905806,14.237037 C34.2905806,13.9844444 34.2708387,13.7548148 34.2394839,13.5137037 L34.1860645,13.5481481 L34.191871,13.5137037 C34.191871,12.1588889 32.5707097,11.2403704 30.3294194,10.5974074 L26.8606452,9.87407407 C22.4117419,9.19666667 17.5169032,9.18518519 17.144129,9.18518519 C16.4496774,9.18518519 0.0987096774,9.23111111 0.0987096774,13.5137037 L0.102193548,13.5481481 L0.0499354839,13.5137037 C0.0209032258,13.7548148 0,13.9844444 0,14.237037 L2.628,22.8137037 C2.628,24.2718519 3.50129032,25.5922222 4.72180645,26.5681481 C1.78722581,27.0044444 0,27.59 0,28.232963 C0,29.6107407 8.10116129,30.712963 18.0952258,30.712963 C28.0892903,30.712963 36.1916129,29.6107407 36.1916129,28.232963 C36.1916129,27.4981481 33.7935484,26.8207407 30.0019355,26.372963 L30.0019355,26.372963 Z" id="Fill-862" sketch:type="MSShapeGroup"></path>
            <path d="M11.3169564,5.41925926 C11.4760532,5.63740741 11.6456015,5.83259259 11.823279,6.02777778 L12.2657306,6.46407407 C12.5444403,6.73962963 12.8057306,7.01518519 13.0147628,7.26777778 C13.1169564,7.39407407 13.2040532,7.50888889 13.2679241,7.61222222 C13.3294725,7.71555556 13.3828919,7.78444444 13.3956661,7.89925926 C13.4119241,8.01407407 13.3468919,8.17481481 13.2249564,8.34703704 C13.1006983,8.50777778 12.9253435,8.65703704 12.7197951,8.81777778 C12.9636661,8.90962963 13.2261177,8.93259259 13.5059886,8.89814815 C13.7846983,8.87518519 14.0924403,8.74888889 14.3479241,8.48481481 C14.603408,8.22074074 14.7416015,7.83037037 14.7648274,7.48592593 C14.7903757,7.14148148 14.7346338,6.83148148 14.6579886,6.55592593 C14.4977306,5.98185185 14.2341177,5.53407407 13.9496015,5.12074074 C13.8102467,4.91407407 13.6348919,4.69592593 13.5106338,4.53518519 C13.3852144,4.39740741 13.271408,4.24814815 13.1680532,4.09888889 C12.7383757,3.51333333 12.4376015,2.9737037 12.3261177,2.3537037 C12.2076661,1.72222222 12.3388919,0.918518519 12.7197951,0 C11.7222467,0.206666667 10.831537,1.03333333 10.543537,2.19296296 C10.4018596,2.75555556 10.4308919,3.38703704 10.5830209,3.93814815 C10.7386338,4.50074074 11.0080532,4.99444444 11.3169564,5.41925926" id="Fill-863" sketch:type="MSShapeGroup"></path>
            <path d="M17.1247512,5.41925926 C17.283848,5.63740741 17.4545577,5.83259259 17.6299125,6.02777778 L18.0735254,6.46407407 C18.3510738,6.73962963 18.6123641,7.01518519 18.8213964,7.26777778 C18.9235899,7.39407407 19.0095254,7.50888889 19.0757189,7.61222222 C19.1337835,7.71555556 19.1906867,7.78444444 19.2022996,7.89925926 C19.2173964,8.01407407 19.1570093,8.17481481 19.0315899,8.34703704 C18.9073318,8.50777778 18.731977,8.65703704 18.5287512,8.81777778 C18.7702996,8.90962963 19.0339125,8.93259259 19.3149447,8.89814815 C19.5924931,8.87518519 19.9013964,8.74888889 20.1557189,8.48481481 C20.4123641,8.22074074 20.5505577,7.83037037 20.5726222,7.48592593 C20.5970093,7.14148148 20.5447512,6.83148148 20.4657835,6.55592593 C20.3066867,5.98185185 20.0419125,5.53407407 19.7585577,5.12074074 C19.6168802,4.91407407 19.4415254,4.69592593 19.3172673,4.53518519 C19.1930093,4.39740741 19.0768802,4.24814815 18.9735254,4.09888889 C18.5473318,3.51333333 18.2453964,2.9737037 18.1339125,2.3537037 C18.0154609,1.72222222 18.1432028,0.918518519 18.5287512,0 C17.5300415,0.206666667 16.6381706,1.03333333 16.3501706,2.19296296 C16.2073318,2.75555556 16.2375254,3.38703704 16.3931383,3.93814815 C16.5452673,4.50074074 16.8135254,4.99444444 17.1247512,5.41925926" id="Fill-864" sketch:type="MSShapeGroup"></path>
            <path d="M22.9302145,5.41925926 C23.0904725,5.63740741 23.2600209,5.83259259 23.436537,6.02777778 L23.8789886,6.46407407 C24.1576983,6.73962963 24.4178274,7.01518519 24.6280209,7.26777778 C24.7313757,7.39407407 24.8184725,7.50888889 24.8811822,7.61222222 C24.9427306,7.71555556 24.9973112,7.78444444 25.0100854,7.89925926 C25.0251822,8.01407407 24.9624725,8.17481481 24.8382145,8.34703704 C24.7139564,8.50777778 24.5386015,8.65703704 24.3353757,8.81777778 C24.5769241,8.90962963 24.8416983,8.93259259 25.1192467,8.89814815 C25.3991177,8.87518519 25.7068596,8.74888889 25.9623435,8.48481481 C26.2178274,8.22074074 26.3560209,7.83037037 26.3792467,7.48592593 C26.4047951,7.14148148 26.3502145,6.83148148 26.272408,6.55592593 C26.1121499,5.98185185 25.848537,5.53407407 25.5651822,5.12074074 C25.4235048,4.91407407 25.2469886,4.69592593 25.1227306,4.53518519 C24.9996338,4.39740741 24.8858274,4.24814815 24.7801499,4.09888889 C24.3527951,3.51333333 24.0508596,2.9737037 23.940537,2.3537037 C23.8220854,1.72222222 23.9521499,0.918518519 24.3353757,0 C23.3366661,0.206666667 22.4459564,1.03333333 22.1591177,2.19296296 C22.0127951,2.75555556 22.0441499,3.38703704 22.1986015,3.93814815 C22.3507306,4.50074074 22.6189886,4.99444444 22.9302145,5.41925926" id="Fill-865" sketch:type="MSShapeGroup"></path>
        </g>
    </g>
</svg>