<?xml version="1.0" encoding="UTF-8" standalone="no"?>
<svg width="37px" height="36px" viewBox="0 0 37 36" version="1.1" xmlns="http://www.w3.org/2000/svg" xmlns:xlink="http://www.w3.org/1999/xlink" xmlns:sketch="http://www.bohemiancoding.com/sketch/ns">
    <!-- Generator: Sketch 3.1 (8751) - http://www.bohemiancoding.com/sketch -->
    <title>Group</title>
    <desc>Created with Sketch.</desc>
    <defs></defs>
    <g id="Page-1" stroke="none" stroke-width="1" fill="none" fill-rule="evenodd" sketch:type="MSPage">
        <g id="Group" sketch:type="MSLayerGroup" fill="#F8F8F7">
            <path d="M28.0769143,12.816 L20.3358857,12.816 C21.0353143,12.816 21.6041143,12.2502857 21.6041143,11.5508571 C21.6041143,10.8514286 21.0353143,10.2857143 20.3358857,10.2857143 L17.1699429,10.2857143 C16.4705143,10.2857143 15.9017143,10.8514286 15.9017143,11.5508571 C15.9017143,12.2502857 16.4705143,12.816 17.1699429,12.816 L9.42788571,12.816 C7.27405714,12.816 5.48948571,14.7497143 5.14285714,16.8068571 L32.3629714,16.8068571 C32.0153143,14.7497143 30.2317714,12.816 28.0769143,12.816" id="Fill-857" sketch:type="MSShapeGroup"></path>
            <path d="M31.8918857,18.8742857 L31.8918857,18.5142857 L0,18.5142857 L0,20.3245714 L4.54422857,20.3245714 L4.54422857,31.5565714 C4.54422857,33.9634286 6.49131429,35.9074286 8.89302857,35.9074286 L27.5420571,35.9074286 C29.9448,35.9074286 31.8918857,33.9634286 31.8918857,31.5565714 L31.8918857,20.6948571 L36.2406857,20.6948571 L36.2406857,18.8742857 L31.8918857,18.8742857" id="Fill-858" sketch:type="MSShapeGroup"></path>
            <path d="M12.0014854,4.35085714 C12.1279997,4.52571429 12.2627426,4.68 12.4026283,4.83428571 L12.7543997,5.184 C12.9755426,5.41028571 13.183314,5.62628571 13.3478854,5.832 C13.4291426,5.93485714 13.4980569,6.02742857 13.5484569,6.10971429 L13.651314,6.336 C13.6626283,6.42857143 13.6132569,6.56228571 13.5134854,6.696 C13.4157712,6.81942857 13.276914,6.94285714 13.1164569,7.07657143 C13.3077712,7.14857143 13.5165712,7.16914286 13.7397712,7.14857143 C13.9598854,7.11771429 14.2026283,7.01485714 14.4062854,6.80914286 C14.6078854,6.59314286 14.7189712,6.28457143 14.7364569,6.00685714 C14.7559997,5.72914286 14.7138283,5.48228571 14.6510854,5.256 C14.5245712,4.80342857 14.3147426,4.44342857 14.090514,4.104 C13.9783997,3.93942857 13.8395426,3.77485714 13.7418283,3.64114286 C13.6430854,3.528 13.5515426,3.40457143 13.4682283,3.29142857 C13.1287997,2.81828571 12.8911997,2.39657143 12.801714,1.89257143 C12.708114,1.38857143 12.8109712,0.740571429 13.1164569,0 C12.3234283,0.164571429 11.6178283,0.833142857 11.3874283,1.75885714 C11.2732569,2.21142857 11.2989712,2.71542857 11.4213712,3.15771429 C11.541714,3.61028571 11.7566854,4.01142857 12.0014854,4.35085714" id="Fill-859" sketch:type="MSShapeGroup"></path>
            <path d="M16.115678,4.35085714 C16.2421923,4.52571429 16.3769351,4.68 16.5168208,4.83428571 L16.8665351,5.184 C17.0887065,5.41028571 17.2944208,5.62628571 17.4631065,5.832 C17.5423065,5.93485714 17.6101923,6.02742857 17.6616208,6.10971429 L17.7634494,6.336 C17.7757923,6.42857143 17.7264208,6.56228571 17.6287065,6.696 C17.5299637,6.81942857 17.3911065,6.94285714 17.2285923,7.07657143 C17.4219637,7.14857143 17.6307637,7.16914286 17.8519065,7.14857143 C18.0730494,7.11771429 18.318878,7.01485714 18.520478,6.80914286 C18.722078,6.59314286 18.8321351,6.28457143 18.8506494,6.00685714 C18.8701923,5.72914286 18.8290494,5.48228571 18.7663065,5.256 C18.6387637,4.80342857 18.4279065,4.44342857 18.203678,4.104 C18.0925923,3.93942857 17.9537351,3.77485714 17.8549923,3.64114286 C17.7583065,3.528 17.6647065,3.40457143 17.5834494,3.29142857 C17.2429923,2.81828571 17.0043637,2.39657143 16.9159065,1.89257143 C16.8233351,1.38857143 16.9241351,0.740571429 17.2285923,0 C16.4365923,0.164571429 15.7309923,0.833142857 15.5016208,1.75885714 C15.388478,2.21142857 15.4121351,2.71542857 15.5355637,3.15771429 C15.6569351,3.61028571 15.8688208,4.01142857 16.115678,4.35085714" id="Fill-860" sketch:type="MSShapeGroup"></path>
            <path d="M21.2596514,4.35085714 C21.3841085,4.52571429 21.5198799,4.68 21.6607942,4.83428571 L22.0105085,5.184 C22.2326799,5.41028571 22.4383942,5.62628571 22.6039942,5.832 C22.6873085,5.93485714 22.7551942,6.02742857 22.8055942,6.10971429 L22.9074228,6.336 C22.9207942,6.42857143 22.8693657,6.56228571 22.7716514,6.696 C22.6739371,6.81942857 22.5340514,6.94285714 22.3715371,7.07657143 C22.5638799,7.14857143 22.7737085,7.16914286 22.9938228,7.14857143 C23.2149657,7.11771429 23.4607942,7.01485714 23.6623942,6.80914286 C23.8639942,6.59314286 23.9750799,6.28457143 23.9925657,6.00685714 C24.0131371,5.72914286 23.9709657,5.48228571 23.9082228,5.256 C23.7817085,4.80342857 23.5718799,4.44342857 23.3476514,4.104 C23.2355371,3.93942857 23.0966799,3.77485714 22.9979371,3.64114286 C22.9002228,3.528 22.8076514,3.40457143 22.7253657,3.29142857 C22.3859371,2.81828571 22.1473085,2.39657143 22.0598799,1.89257143 C21.9652514,1.38857143 22.0670799,0.740571429 22.3715371,0 C21.5795371,0.164571429 20.8729085,0.833142857 20.6445657,1.75885714 C20.5314228,2.21142857 20.5550799,2.71542857 20.6774799,3.15771429 C20.7988514,3.61028571 21.0117657,4.01142857 21.2596514,4.35085714" id="Fill-861" sketch:type="MSShapeGroup"></path>
        </g>
    </g>
</svg>