<?xml version="1.0" encoding="UTF-8" standalone="no"?>
<svg width="36px" height="36px" viewBox="0 0 36 36" version="1.1" xmlns="http://www.w3.org/2000/svg" xmlns:xlink="http://www.w3.org/1999/xlink" xmlns:sketch="http://www.bohemiancoding.com/sketch/ns">
    <!-- Generator: Sketch 3.1 (8751) - http://www.bohemiancoding.com/sketch -->
    <title>Vector 1</title>
    <desc>Created with Sketch.</desc>
    <defs></defs>
    <g id="Page-1" stroke="none" stroke-width="1" fill="none" fill-rule="evenodd" sketch:type="MSPage">
        <g id="Group" sketch:type="MSLayerGroup" transform="translate(1.000000, 0.000000)" fill="#F8F8F7">
            <path d="M13.8780303,25.2635294 L12.1481818,25.2529412 C12.1481818,25.0729412 12.0272727,7.03058824 0,1.56705882 L0.715909091,0 C13.7709091,5.91882353 13.8801515,24.48 13.8780303,25.2635294" id="Fill-694" sketch:type="MSShapeGroup"></path>
            <path d="M18.8628788,25.1152941 C17.5774242,23.1141176 14.9980303,22.2352941 11.9880303,22.2352941 C7.71060606,22.2352941 4.24242424,23.9717647 4.24242424,28.2388235 C4.24242424,32.5164706 7.71060606,35.9788235 11.9880303,35.9788235 C14.9980303,35.9788235 17.5774242,34.2529412 18.8628788,31.7435294 C18.3166667,30.6952941 17.9857576,29.5094118 17.9857576,28.2388235 C17.9857576,26.9788235 18.3166667,25.9517647 18.8628788,25.1152941" id="Fill-695" sketch:type="MSShapeGroup"></path>
            <path d="M34.5884848,28.2388235 C34.5884848,32.5164706 31.1171212,35.9788235 26.8386364,35.9788235 C22.5612121,35.9788235 19.0909091,32.5164706 19.0909091,28.2388235 C19.0909091,23.9717647 22.5612121,22.2352941 26.8386364,22.2352941 C31.1171212,22.2352941 34.5884848,23.9717647 34.5884848,28.2388235" id="Fill-696" sketch:type="MSShapeGroup"></path>
            <path d="M27.5662121,25.2211765 L25.9774242,25.2105882 C25.9774242,24.7341176 25.8427273,13.2670588 13.7878788,7.79294118 L14.4475758,6.35294118 C27.4559091,12.2505882 27.5662121,25.0941176 27.5662121,25.2211765" id="Fill-697" sketch:type="MSShapeGroup"></path>
        </g>
    </g>
</svg>