<?xml version="1.0" encoding="UTF-8" standalone="no"?>
<svg width="36px" height="36px" viewBox="0 0 36 36" version="1.1" xmlns="http://www.w3.org/2000/svg" xmlns:xlink="http://www.w3.org/1999/xlink" xmlns:sketch="http://www.bohemiancoding.com/sketch/ns">
    <!-- Generator: Sketch 3.1 (8751) - http://www.bohemiancoding.com/sketch -->
    <title>Vector 1</title>
    <desc>Created with Sketch.</desc>
    <defs></defs>
    <g id="Page-1" stroke="none" stroke-width="1" fill="none" fill-rule="evenodd" sketch:type="MSPage">
        <g id="Fill-246-+-Fill-247-+-Fill-248" sketch:type="MSLayerGroup" transform="translate(2.000000, 0.000000)" fill="#F8F8F7">
            <path d="M22.723,18.025 L22.707,18 C22.48,18.262 22.245,18.533 22,18.811 L22.723,18.025" id="Fill-246" sketch:type="MSShapeGroup"></path>
            <path d="M12.7181465,17.5912469 C12.7181465,17.5912469 15.2881465,17.3382469 16.1511465,20.8372469 L12.7181465,17.5912469 L12.7181465,17.5912469 Z M24.5681465,7.46124695 C20.5981465,3.98824695 17.4671465,7.79624695 17.4671465,7.79624695 C17.4671465,7.79624695 20.8681465,10.2872469 20.2911465,12.1132469 C19.1081465,11.9852469 16.7941465,8.97324695 16.5841465,8.76124695 C15.1781465,10.2282469 13.4371465,12.2542469 11.1391465,14.9282469 C9.06514646,17.3392469 7.30214646,19.6772469 5.82914646,21.8712469 C6.53014646,22.2822469 7.28414646,23.0942469 7.68214646,24.6982469 L5.39714646,22.5372469 C1.26714646,28.8552469 -0.394853539,33.9002469 0.0781464607,35.9682469 C1.73314646,36.2022469 4.27214646,35.1962469 7.37414646,33.0422469 L4.63814646,30.4532469 C4.63814646,30.4532469 6.72014646,30.2592469 7.76514646,32.7742469 C11.0841465,30.4022469 15.0191465,26.7412469 19.2111465,21.8622469 C20.1241465,20.7992469 20.9521465,19.8502469 21.7071465,18.9852469 L21.4831465,19.2302469 L18.8411465,16.5752469 C20.7261465,15.8612469 22.2441465,17.9342469 22.4141465,18.1742469 C27.8971465,11.8892469 28.5431465,10.8772469 24.5681465,7.46124695 L24.5681465,7.46124695 Z" id="Fill-247" sketch:type="MSShapeGroup"></path>
            <path d="M30.8795036,5.49819609 L27.9645036,5.61719609 L29.7935036,3.63019609 C30.1035036,3.29519609 30.8775036,2.25419609 30.5455036,1.94619609 C30.2115036,1.63919609 28.8945036,2.18219609 28.5865036,2.51619609 L26.7535036,4.50319609 L26.6425036,1.80319609 C26.6245036,1.34819609 26.3105036,-0.0188039073 25.8565036,0.000196092699 C25.3995036,0.0171960927 24.9835036,1.41619609 25.0005036,1.86919609 L25.1945036,6.55319609 L25.1975036,6.56619609 C25.2035036,6.66819609 25.2255036,6.76919609 25.2685036,6.86319609 C25.3625036,7.06119609 25.5265036,7.21419609 25.7305036,7.29019609 C25.8295036,7.32519609 25.9325036,7.34219609 26.0345036,7.33719609 L26.0475036,7.34019609 L26.0605036,7.33719609 L26.1585036,7.31519609 L26.2635036,7.33119609 L30.9485036,7.13919609 C31.4015036,7.12219609 33.4165036,7.08719609 33.3985036,6.63219609 C33.3795036,6.17919609 31.3345036,5.47919609 30.8795036,5.49819609" id="Fill-248" sketch:type="MSShapeGroup"></path>
        </g>
    </g>
</svg>